<?xml version="1.0" encoding="UTF-8"?>
<svg version="1.1" xmlns="http://www.w3.org/2000/svg" width="500" height="500">
<path d="M0 0 C0.99 0.37125 0.99 0.37125 2 0.75 C2.33490827 6.87882128 1.06509276 12.09771203 -0.5 18 C-2.23569834 24.78457483 -3.31000143 30.73372353 -2.9296875 37.76953125 C-3 39.75 -3 39.75 -4.6875 42.5 C-7 43.75 -7 43.75 -9.75 43.5 C-10.86375 43.12875 -10.86375 43.12875 -12 42.75 C-12 42.09 -12 41.43 -12 40.75 C-12.66 40.75 -13.32 40.75 -14 40.75 C-14 40.09 -14 39.43 -14 38.75 C-14.66 38.75 -15.32 38.75 -16 38.75 C-16 38.09 -16 37.43 -16 36.75 C-18.02045442 37.35183749 -20.02111039 38.02306096 -22 38.75 C-22.33 39.41 -22.66 40.07 -23 40.75 C-23.66 40.75 -24.32 40.75 -25 40.75 C-25 41.41 -25 42.07 -25 42.75 C-27.375 45.375 -27.375 45.375 -30 47.75 C-30.66 47.75 -31.32 47.75 -32 47.75 C-32 48.41 -32 49.07 -32 49.75 C-32.66 49.75 -33.32 49.75 -34 49.75 C-35.66980151 52.75564272 -36.74546374 55.30397068 -37 58.75 C-35.51304456 61.91423678 -35.51304456 61.91423678 -33.3125 65.0625 C-28.09663857 72.96734302 -24.48323473 80.57925403 -21.8125 89.6875 C-21.55275391 90.52990234 -21.29300781 91.37230469 -21.02539062 92.24023438 C-13.06322464 118.96595431 -17.74436111 149.02608617 -30.75854492 173.25244141 C-34.27037245 179.51972825 -38.50151052 185.15812765 -43 190.75 C-41.4218859 194.62737577 -38.78651499 197.22019203 -35.84765625 200.09765625 C-35.32388397 200.618508 -34.80011169 201.13935974 -34.26046753 201.67599487 C-33.12555659 202.80331027 -31.98834142 203.92830964 -30.84909058 205.05123901 C-29.04576773 206.82899505 -27.24880173 208.61295947 -25.45336914 210.39868164 C-21.64113478 214.18807639 -17.82114051 217.96958894 -14 221.75 C-9.57161819 226.1311798 -5.14647883 230.51553141 -0.72970581 234.90841675 C1.04000456 236.66516927 2.81563555 238.41578525 4.59155273 240.16625977 C5.677216 241.24465709 6.76259897 242.3233367 7.84765625 243.40234375 C8.34226349 243.88661835 8.83687073 244.37089294 9.34646606 244.86984253 C11.78509872 247.30771823 13.84201823 249.4678494 15 252.75 C14.82357605 256.10205511 14.56269287 258.72391301 12.9375 261.6875 C9.52561258 263.55853504 6.65897676 263.81478379 3 262.75 C0.75460815 261.08003235 0.75460815 261.08003235 -1.60986328 258.86450195 C-2.92558319 257.63589951 -2.92558319 257.63589951 -4.2678833 256.38247681 C-8.78879795 252.02643925 -13.25289575 247.61959093 -17.6796875 243.16796875 C-18.66450186 242.18128181 -19.64954279 241.19482097 -20.63479614 240.20857239 C-23.19669722 237.64290141 -25.75558133 235.07424299 -28.31378174 232.50488281 C-30.92088641 229.88748385 -33.53087708 227.27296611 -36.140625 224.65820312 C-40.72198777 220.06733867 -45.30086975 215.47401521 -49.87789917 210.87882996 C-51.9164931 208.8337717 -53.95758405 206.79124051 -56 204.75 C-59.15358623 206.50199235 -62.25048705 208.22693001 -65.2109375 210.29296875 C-71.13248495 214.3745401 -77.234431 217.31207636 -83.875 220 C-85.07709106 220.4935498 -85.07709106 220.4935498 -86.3034668 220.99707031 C-98.66798439 225.84434741 -110.58482688 227.30225652 -123.75 227.1875 C-124.50045593 227.18412628 -125.25091187 227.18075256 -126.02410889 227.17727661 C-154.96491433 226.98866806 -178.0657047 216.4079975 -199.375 197.0625 C-200.14336182 196.3670105 -200.14336182 196.3670105 -200.92724609 195.6574707 C-203.58640927 193.20526862 -206.04315874 190.8050685 -208 187.75 C-208 187.09 -208 186.43 -208 185.75 C-208.66 185.75 -209.32 185.75 -210 185.75 C-219.59993607 173.89904444 -225.52598162 159.46657031 -229 144.75 C-229.22558594 143.85925781 -229.45117188 142.96851563 -229.68359375 142.05078125 C-235.56205946 114.28009841 -228.73415885 85.7629142 -213.75390625 62.12109375 C-204.71422668 48.5219763 -192.95494086 37.19641157 -179 28.75 C-177.64261719 27.92435547 -177.64261719 27.92435547 -176.2578125 27.08203125 C-150.25245172 12.75329847 -118.76366216 11.63197993 -90.71875 19.5703125 C-77.44601135 23.78078211 -65.1679783 30.2226537 -54.8125 39.62109375 C-52.3138731 41.92199313 -52.3138731 41.92199313 -49.94921875 41.87109375 C-47.11814764 40.24280235 -45.08463624 38.15175992 -42.8125 35.8125 C-41.93207031 34.91660156 -41.05164063 34.02070313 -40.14453125 33.09765625 C-37.9856505 30.94884416 -37.9856505 30.94884416 -37 28.75 C-36.34 28.75 -35.68 28.75 -35 28.75 C-35 28.09 -35 27.43 -35 26.75 C-34.01 26.09 -33.02 25.43 -32 24.75 C-33.22053859 21.08838422 -34.36782304 20.58729526 -37.5625 18.5625 C-38.80193359 17.76779297 -38.80193359 17.76779297 -40.06640625 16.95703125 C-40.70449219 16.55871094 -41.34257812 16.16039062 -42 15.75 C-41.67 14.43 -41.34 13.11 -41 11.75 C-40.13310547 11.52860352 -39.26621094 11.30720703 -38.37304688 11.07910156 C-35.12077421 10.24387066 -31.87083038 9.4005058 -28.62207031 8.55175781 C-27.22251314 8.18786007 -25.8221331 7.82711051 -24.42089844 7.46972656 C-17.16366686 5.6165961 -6.80921766 -0.5674348 0 0 Z " fill="#FAF8EE" transform="translate(374,120.25)"/>
<path d="M0 0 C0.7321875 0.391875 1.464375 0.78375 2.21875 1.1875 C4.86020245 2.54623273 6.07991209 3.07691204 9.046875 2.6328125 C11.30260372 1.86877535 13.43135292 0.99435529 15.59375 0 C22.45617396 -2.28747465 28.67908675 -1.1985407 35.21875 1.65234375 C38.96877939 3.78023872 42.01905646 6.53865703 44.59375 10 C44.59375 10.66 44.59375 11.32 44.59375 12 C47.56375 12.33 50.53375 12.66 53.59375 13 C52.49348587 16.3007924 51.76665663 16.92480282 49.15625 19.0625 C45.71839114 22.0012142 42.36590665 25.00178932 39.09375 28.125 C38.2378125 28.93195313 37.381875 29.73890625 36.5 30.5703125 C34.40303427 32.84270703 34.40303427 32.84270703 34.15625 35.63671875 C34.80554527 39.14407266 37.03832038 40.6362276 39.59375 43 C39.59375 43.66 39.59375 44.32 39.59375 45 C41.84067351 45.50537677 41.84067351 45.50537677 44.59375 45 C46.8034399 43.04904902 48.62536505 41.21372602 50.53125 39 C51.05686523 38.41001221 51.58248047 37.82002441 52.12402344 37.2121582 C55.85762764 32.97800105 59.33714708 28.6135208 62.59375 24 C64.40625 24.125 64.40625 24.125 66.59375 25 C69.62664486 29.51503353 69.94375899 33.59502354 69.96875 38.875 C70.14316306 44.66432448 70.78846853 48.88398836 74.4375 53.51953125 C78.09724279 58.2054857 77.05910411 65.42867716 76.59375 71 C74.57466651 78.52766995 70.08781153 83.74527003 63.59375 88 C62.93375 88 62.27375 88 61.59375 88 C61.531875 88.99 61.47 89.98 61.40625 91 C60.76532999 95.60896886 58.5560979 99.44702822 55.59375 103 C54.93375 103 54.27375 103 53.59375 103 C53.09875 104.485 53.09875 104.485 52.59375 106 C47.63893673 109.34449896 43.33764224 109.34463353 37.59375 109 C37.8103125 109.79664063 38.026875 110.59328125 38.25 111.4140625 C38.5284375 112.47367187 38.806875 113.53328125 39.09375 114.625 C39.3721875 115.66914063 39.650625 116.71328125 39.9375 117.7890625 C40.58493596 120.95687418 40.7098792 123.77741467 40.59375 127 C36.23665903 128.45236366 32.14342103 128.62374522 27.59375 128 C24.96875 126.0625 24.96875 126.0625 22.59375 123 C21.24408144 121.51672789 19.88951721 120.03790218 18.53125 118.5625 C15.55739373 115.19954104 13.04774515 111.76279256 10.59375 108 C9.0165348 106.14029849 7.40668525 104.31916646 5.765625 102.515625 C4.59375 101 4.59375 101 4.59375 99 C3.77583984 99.2165625 3.77583984 99.2165625 2.94140625 99.4375 C-6.2366279 101.69670841 -12.76434635 102.09387415 -21.2421875 97.421875 C-25.95787267 94.32348258 -28.15760608 90.05944882 -30.40625 85 C-30.40625 84.34 -30.40625 83.68 -30.40625 83 C-31.251875 83.03480469 -32.0975 83.06960938 -32.96875 83.10546875 C-47.73235653 83.45778209 -47.73235653 83.45778209 -53.59765625 77.9375 C-60.21112163 70.7443212 -61.9073843 66.40866608 -61.8046875 56.5703125 C-61.21960563 51.32752002 -59.17506272 46.76881272 -55.40625 43 C-55.13275 40.66930435 -54.88791911 38.33522459 -54.65625 36 C-53.76530656 28.637076 -52.34094349 22.4793687 -46.6171875 17.41796875 C-43.08554729 14.97677522 -39.93579155 13.79223764 -35.71875 13.0625 C-31.69387464 12.3300822 -30.25037729 11.0802537 -27.85546875 7.66015625 C-21.37666484 0.23834584 -9.32922476 -3.87708042 0 0 Z " fill="#91C3E3" transform="translate(242.40625,179)"/>
<path d="M0 0 C-2.46025059 4.51045941 -5.60282037 8.18504423 -9 12 C-12.09305422 11.39096941 -14.19639762 10.40131197 -16.75 8.5625 C-17.36359375 8.13066406 -17.9771875 7.69882813 -18.609375 7.25390625 C-19.06828125 6.84011719 -19.5271875 6.42632812 -20 6 C-20 5.34 -20 4.68 -20 4 C-20.67417969 3.74863281 -21.34835937 3.49726563 -22.04296875 3.23828125 C-24.88976073 2.04616361 -27.58858634 0.67225256 -30.31665039 -0.76733398 C-51.71945382 -11.97533417 -75.72469403 -15.88801717 -99.25390625 -9.18359375 C-123.3336969 -1.57548471 -142.18328968 13.21438885 -154.21484375 35.51953125 C-165.68172769 57.87619119 -168.4229825 82.30063627 -160.9296875 106.44140625 C-159.52917322 110.29576279 -157.78505879 113.96868477 -155.98828125 117.65234375 C-155 120 -155 120 -155 123 C-154.34 123 -153.68 123 -153 123 C-152.77828125 123.49886719 -152.5565625 123.99773437 -152.328125 124.51171875 C-147.38456654 134.48839288 -137.11689451 146.94155275 -127 152 C-127 152.66 -127 153.32 -127 154 C-126.32453125 154.25007812 -125.6490625 154.50015625 -124.953125 154.7578125 C-122.11064181 155.95346019 -119.44456533 157.35344774 -116.73364258 158.81811523 C-107.73688264 163.61158893 -98.97603524 166.10744026 -89 168 C-88.21496094 168.19078125 -87.42992187 168.3815625 -86.62109375 168.578125 C-73.02616453 170.76628052 -59.01009186 169.23004878 -46 165 C-45.2992334 164.7745752 -44.5984668 164.54915039 -43.87646484 164.31689453 C-26.26943102 158.41583405 -9.90982867 146.70005188 -0.2265625 130.6875 C0.17820312 130.130625 0.58296875 129.57375 1 129 C1.66 129 2.32 129 3 129 C3.26039063 128.14148438 3.52078125 127.28296875 3.7890625 126.3984375 C5.03225875 122.90946737 6.60653666 119.87619242 8.375 116.625 C14.63292103 104.31281327 16.34096897 93.02084322 16.4375 79.3125 C16.44773193 78.19657471 16.45796387 77.08064941 16.46850586 75.9309082 C16.29842905 59.7688536 11.33360212 44.13018714 3.234375 30.20703125 C2 28 2 28 1 25 C0.34 25 -0.32 25 -1 25 C-1 22 -1 22 0.57421875 20.24609375 C1.27160156 19.64925781 1.96898437 19.05242187 2.6875 18.4375 C3.37199219 17.83808594 4.05648437 17.23867187 4.76171875 16.62109375 C7.09432044 14.93168764 9.292434 13.95310117 12 13 C13.41425929 15.58503804 14.823891 18.17214967 16.22265625 20.765625 C17.36134242 22.83778357 18.53320663 24.89225628 19.74609375 26.921875 C23.57947205 33.51289516 26.17578176 39.9647535 28.375 47.25 C28.62572266 48.07749756 28.87644531 48.90499512 29.13476562 49.75756836 C36.8021247 76.49988586 32.24038408 106.30448352 19.24145508 130.50244141 C15.72962755 136.76972825 11.49848948 142.40812765 7 148 C8.5781141 151.87737577 11.21348501 154.47019203 14.15234375 157.34765625 C14.67611603 157.868508 15.19988831 158.38935974 15.73953247 158.92599487 C16.87444341 160.05331027 18.01165858 161.17830964 19.15090942 162.30123901 C20.95423227 164.07899505 22.75119827 165.86295947 24.54663086 167.64868164 C28.35886522 171.43807639 32.17885949 175.21958894 36 179 C40.42838181 183.3811798 44.85352117 187.76553141 49.27029419 192.15841675 C51.04000456 193.91516927 52.81563555 195.66578525 54.59155273 197.41625977 C55.677216 198.49465709 56.76259897 199.5733367 57.84765625 200.65234375 C58.34226349 201.13661835 58.83687073 201.62089294 59.34646606 202.11984253 C61.78509872 204.55771823 63.84201823 206.7178494 65 210 C64.82357605 213.35205511 64.56269287 215.97391301 62.9375 218.9375 C59.52561258 220.80853504 56.65897676 221.06478379 53 220 C50.75460815 218.33003235 50.75460815 218.33003235 48.39013672 216.11450195 C47.51299011 215.29543365 46.63584351 214.47636536 45.7321167 213.63247681 C41.21120205 209.27643925 36.74710425 204.86959093 32.3203125 200.41796875 C31.33549814 199.43128181 30.35045721 198.44482097 29.36520386 197.45857239 C26.80330278 194.89290141 24.24441867 192.32424299 21.68621826 189.75488281 C19.07911359 187.13748385 16.46912292 184.52296611 13.859375 181.90820312 C9.27801223 177.31733867 4.69913025 172.72401521 0.12210083 168.12882996 C-1.9164931 166.0837717 -3.95758405 164.04124051 -6 162 C-9.15358623 163.75199235 -12.25048705 165.47693001 -15.2109375 167.54296875 C-21.13248495 171.6245401 -27.234431 174.56207636 -33.875 177.25 C-35.07709106 177.7435498 -35.07709106 177.7435498 -36.3034668 178.24707031 C-48.66798439 183.09434741 -60.58482688 184.55225652 -73.75 184.4375 C-74.50045593 184.43412628 -75.25091187 184.43075256 -76.02410889 184.42727661 C-104.96491433 184.23866806 -128.0657047 173.6579975 -149.375 154.3125 C-150.14336182 153.6170105 -150.14336182 153.6170105 -150.92724609 152.9074707 C-153.58640927 150.45526862 -156.04315874 148.0550685 -158 145 C-158 144.34 -158 143.68 -158 143 C-158.66 143 -159.32 143 -160 143 C-169.59993607 131.14904444 -175.52598162 116.71657031 -179 102 C-179.22558594 101.10925781 -179.45117188 100.21851563 -179.68359375 99.30078125 C-185.56205946 71.53009841 -178.73415885 43.0129142 -163.75390625 19.37109375 C-154.71422668 5.7719763 -142.95494086 -5.55358843 -129 -14 C-128.09507812 -14.55042969 -127.19015625 -15.10085937 -126.2578125 -15.66796875 C-84.29426704 -38.78952567 -36.09810794 -27.99445105 0 0 Z " fill="#93C6E7" transform="translate(324,163)"/>
<path d="M0 0 C3.875 0.625 3.875 0.625 5.875 3 C6.875 5.625 6.875 5.625 6.875 7.625 C8.195 7.625 9.515 7.625 10.875 7.625 C13.875 13.375 13.875 13.375 13.875 15.625 C10.93725537 15.67890357 8.00049768 15.7186255 5.0625 15.75 C4.22912109 15.76675781 3.39574219 15.78351563 2.53710938 15.80078125 C1.73466797 15.80722656 0.93222656 15.81367188 0.10546875 15.8203125 C-1.00211792 15.83602295 -1.00211792 15.83602295 -2.13208008 15.85205078 C-4.125 15.625 -4.125 15.625 -7.125 13.625 C-10.7630818 13.16056403 -12.48234354 13.19656236 -15.5625 15.25 C-17.43042497 17.58702439 -17.43042497 17.58702439 -17 20.75 C-16.34191176 23.72181373 -16.34191176 23.72181373 -14.125 25.625 C-11.92249008 26.08506346 -11.92249008 26.08506346 -9.5 26.25 C-8.68273437 26.32476562 -7.86546875 26.39953125 -7.0234375 26.4765625 C-6.39695312 26.52554687 -5.77046875 26.57453125 -5.125 26.625 C-5.125 25.635 -5.125 24.645 -5.125 23.625 C2.135 23.625 9.395 23.625 16.875 23.625 C13.23863636 32.71590909 13.23863636 32.71590909 8.875 35.625 C6.10844676 35.76745897 3.44846694 35.81269445 0.6875 35.75 C-0.06208984 35.74097656 -0.81167969 35.73195313 -1.58398438 35.72265625 C-3.43112654 35.69912578 -5.27810412 35.66325561 -7.125 35.625 C-7.16387326 40.17317179 -7.12786232 44.5992391 -6.625 49.125 C-6.48578125 50.40890625 -6.48578125 50.40890625 -6.34375 51.71875 C-6.2715625 52.3478125 -6.199375 52.976875 -6.125 53.625 C-7.79166667 51.95833333 -9.45833333 50.29166667 -11.125 48.625 C-11.723125 48.068125 -12.32125 47.51125 -12.9375 46.9375 C-14.125 45.625 -14.125 45.625 -14.125 43.625 C-14.785 43.625 -15.445 43.625 -16.125 43.625 C-17.89113205 41.51210658 -19.55152935 39.39733306 -21.1875 37.1875 C-23.98696651 33.25879209 -23.98696651 33.25879209 -27.125 29.625 C-27.61969631 22.69925169 -26.86290026 15.99146897 -22.35546875 10.44921875 C-19.77183193 8.33615676 -17.93805255 7.84121723 -14.6875 7.1875 C-10.73299481 6.24595114 -9.39015415 5.89015415 -6.4375 2.9375 C-3.92657586 0.42657586 -3.37621076 0.2014737 0 0 Z " fill="#BFE3F9" transform="translate(279.125,244.375)"/>
<path d="M0 0 C3.138935 5.28259792 3.03285705 11.07466219 2 17 C-0.21463349 20.82527603 -2.94963075 23.82712596 -6 27 C-6.66 27.99 -7.32 28.98 -8 30 C-11.125 30.1875 -11.125 30.1875 -14 30 C-14.66 26.37 -15.32 22.74 -16 19 C-17.98 19 -19.96 19 -22 19 C-22.99843846 21.99531539 -23.00732761 23.17255732 -22.5625 26.1875 C-22.376875 27.445625 -22.19125 28.70375 -22 30 C-22.67546875 30.07476562 -23.3509375 30.14953125 -24.046875 30.2265625 C-26.81479033 30.63455002 -29.35117185 31.0902587 -32 32 C-32.61875 33.010625 -33.2375 34.02125 -33.875 35.0625 C-36 38 -36 38 -38.828125 38.68359375 C-41.94230047 38.98246604 -44.87788006 39.21845737 -48 39 C-51.33564043 35.66435957 -51.89889454 31.9773528 -52.375 27.375 C-52 24 -52 24 -50.125 21.5625 C-48 20 -48 20 -46 20 C-46 19.34 -46 18.68 -46 18 C-42.59336868 15.92817855 -39.95164035 15.75816495 -36 15.8125 C-34.453125 15.82216797 -34.453125 15.82216797 -32.875 15.83203125 C-30.41931318 15.97550208 -28.34492245 16.2953959 -26 17 C-26 14.69 -26 12.38 -26 10 C-23.95880212 11.61594832 -21.95927063 13.2856382 -20 15 C-20 15.66 -20 16.32 -20 17 C-17.76157145 17.526778 -17.76157145 17.526778 -15 17 C-12.65844067 15.18509959 -10.80005201 12.99189349 -8.875 10.75 C-8.35035156 10.16347656 -7.82570313 9.57695312 -7.28515625 8.97265625 C-4.71641811 6.07876139 -2.25838265 3.14616065 0 0 Z " fill="#BFE3FA" transform="translate(302,207)"/>
<path d="M0 0 C1.62890625 0.9140625 1.62890625 0.9140625 3.94140625 3.3515625 C4.50390625 6.9140625 4.50390625 6.9140625 3.94140625 10.3515625 C3.42578125 10.8259375 2.91015625 11.3003125 2.37890625 11.7890625 C0.71674836 13.23730594 0.71674836 13.23730594 0.96484375 15.3046875 C1.22680205 17.32955436 1.57906753 19.34222962 1.94140625 21.3515625 C2.53308594 21.46113281 3.12476563 21.57070312 3.734375 21.68359375 C8.29396162 22.59848633 12.19613664 23.42557061 15.94140625 26.3515625 C16.43640625 27.8365625 16.43640625 27.8365625 16.94140625 29.3515625 C10.94140625 32.3515625 10.94140625 32.3515625 8.69140625 33.2890625 C6.48481577 34.62877815 5.88559143 35.99109955 4.94140625 38.3515625 C2.16032433 38.81507615 0.62731162 39.03185748 -2.05859375 38.3515625 C-4.40457161 36.46888368 -6.35130925 34.43610142 -8.359375 32.19921875 C-9.93666684 30.26435133 -9.93666684 30.26435133 -12.05859375 29.3515625 C-12.05859375 27.7015625 -12.05859375 26.0515625 -12.05859375 24.3515625 C-11.39859375 24.0215625 -10.73859375 23.6915625 -10.05859375 23.3515625 C-10.38859375 21.7015625 -10.71859375 20.0515625 -11.05859375 18.3515625 C-15.01859375 18.8465625 -15.01859375 18.8465625 -19.05859375 19.3515625 C-21.69655126 14.84505175 -22.99069787 11.57134559 -22.05859375 6.3515625 C-16.19212382 -0.46209789 -8.76135843 -2.75974478 0 0 Z " fill="#BFE2F9" transform="translate(242.05859375,186.6484375)"/>
<path d="M0 0 C1.22589844 0.01353516 1.22589844 0.01353516 2.4765625 0.02734375 C3.41628906 0.04474609 3.41628906 0.04474609 4.375 0.0625 C6.99798899 5.03459157 6.77857331 10.08145434 6.8125 15.5625 C6.84537109 16.49964844 6.87824219 17.43679688 6.91210938 18.40234375 C6.94900123 23.13120821 6.95053836 25.3213189 3.97265625 29.15625 C-0.16619456 32.19348187 -2.4692969 32.32028515 -7.625 32.0625 C-10.96205579 31.52857107 -12.86570052 30.93369625 -15.109375 28.359375 C-17.15150024 25.3535502 -18.47465349 22.65135716 -19.375 19.125 C-18.16291547 14.17565483 -14.89897526 10.86628868 -11.625 7.0625 C-10.68707822 5.89617239 -9.74951287 4.72955794 -8.8125 3.5625 C-5.81247479 0.13389975 -4.38877799 -0.06269683 0 0 Z " fill="#C0E2F9" transform="translate(238.625,239.9375)"/>
<path d="M0 0 C3.27086929 4.90630393 2.5387828 10.26628679 2 16 C-0.03024423 23.52836509 -4.50005634 28.74141622 -11 33 C-11.66 33 -12.32 33 -13 33 C-13.0928125 34.485 -13.0928125 34.485 -13.1875 36 C-13.82842001 40.60896886 -16.0376521 44.44702822 -19 48 C-19.66 48 -20.32 48 -21 48 C-21.33 48.99 -21.66 49.98 -22 51 C-26.95481327 54.34449896 -31.25610776 54.34463353 -37 54 C-36.7834375 54.79664063 -36.566875 55.59328125 -36.34375 56.4140625 C-36.0653125 57.47367187 -35.786875 58.53328125 -35.5 59.625 C-35.08234375 61.19121094 -35.08234375 61.19121094 -34.65625 62.7890625 C-34.00881404 65.95687418 -33.8838708 68.77741467 -34 72 C-38.35709097 73.45236366 -42.45032897 73.62374522 -47 73 C-49.625 71.0625 -49.625 71.0625 -52 68 C-53.41447901 66.47713179 -54.83131235 64.95644826 -56.25 63.4375 C-58.80015593 60.67163539 -60.41982416 58.76261099 -61 55 C-60.01 55.33 -59.02 55.66 -58 56 C-58 56.99 -58 57.98 -58 59 C-57.01 59.33 -56.02 59.66 -55 60 C-53.39453125 61.62890625 -53.39453125 61.62890625 -51.8125 63.5625 C-51.28269531 64.20316406 -50.75289063 64.84382813 -50.20703125 65.50390625 C-49.60955078 66.24447266 -49.60955078 66.24447266 -49 67 C-48.01 66.01 -48.01 66.01 -47 65 C-47.66 63.02 -48.32 61.04 -49 59 C-47.68 60.32 -46.36 61.64 -45 63 C-45.08378906 62.02417969 -45.16757812 61.04835938 -45.25390625 60.04296875 C-45.35574219 58.77066406 -45.45757812 57.49835938 -45.5625 56.1875 C-45.66691406 54.92292969 -45.77132813 53.65835938 -45.87890625 52.35546875 C-46 49 -46 49 -45 46 C-43.89140625 45.96261719 -42.7828125 45.92523438 -41.640625 45.88671875 C-40.17705026 45.82104552 -38.71351009 45.75459865 -37.25 45.6875 C-36.52039063 45.66494141 -35.79078125 45.64238281 -35.0390625 45.61914062 C-30.8059946 45.40748723 -28.01871945 45.09475773 -25 42 C-24.649375 41.29875 -24.29875 40.5975 -23.9375 39.875 C-23 38 -23 38 -20 37 C-19.01 37.66 -18.02 38.32 -17 39 C-16.566875 37.88625 -16.566875 37.88625 -16.125 36.75 C-15.17697356 34.43260203 -14.15154089 32.22082885 -13 30 C-11.68 30 -10.36 30 -9 30 C-9 29.34 -9 28.68 -9 28 C-8.01 28 -7.02 28 -6 28 C-5.34 26.35 -4.68 24.7 -4 23 C-3.34 23 -2.68 23 -2 23 C0.48260659 15.39701733 0.18508331 7.89688807 0 0 Z " fill="#95C4E2" transform="translate(317,234)"/>
<path d="M0 0 C0 0.66 0 1.32 0 2 C0.556875 2.226875 1.11375 2.45375 1.6875 2.6875 C4.71572375 4.40622159 6.77323664 6.32788397 9 9 C8.70394954 13.96941836 4.68861962 17.44284447 1.4765625 20.89453125 C-0.96182662 22.96754661 -2.04674519 23.76166624 -5.1875 23.9375 C-9.93756952 22.76945012 -11.72697552 21.60032692 -15 18 C-15 16.68 -15 15.36 -15 14 C-15.66 14 -16.32 14 -17 14 C-18.12256131 11.75487738 -18.13413762 10.48543351 -18.125 8 C-18.12886719 6.948125 -18.12886719 6.948125 -18.1328125 5.875 C-18 4 -18 4 -17 2 C-11.50467309 -0.60304959 -5.93401693 -0.19005748 0 0 Z " fill="#C1E4F9" transform="translate(272,186)"/>
<path d="M0 0 C3.64365286 2.71108157 6.84488329 5.73949317 10 9 C9.67 9.99 9.34 10.98 9 12 C5.4375 13.1875 5.4375 13.1875 2 14 C2 14.66 2 15.32 2 16 C1.34 16 0.68 16 0 16 C-0.268125 16.5775 -0.53625 17.155 -0.8125 17.75 C-2.02929189 20.05550043 -3.30333879 22.02056192 -5 24 C-5.66 24 -6.32 24 -7 24 C-7.03738281 23.24074219 -7.07476562 22.48148438 -7.11328125 21.69921875 C-7.17902344 20.70535156 -7.24476563 19.71148437 -7.3125 18.6875 C-7.37050781 17.70136719 -7.42851562 16.71523437 -7.48828125 15.69921875 C-8.05140936 12.72882543 -8.52344702 11.6957104 -11 10 C-12.0725 10.04125 -13.145 10.0825 -14.25 10.125 C-18.95733506 9.96808883 -21.69609192 8.31395035 -25 5 C-25 4.34 -25 3.68 -25 3 C-23.09343947 2.52335987 -21.18644239 2.04840157 -19.27734375 1.58203125 C-17.84425409 1.21576991 -16.41782891 0.82113335 -15.00390625 0.38671875 C-9.90049343 -1.12274138 -5.09288479 -1.90045455 0 0 Z " fill="#BFE3FA" transform="translate(225,221)"/>
<path d="M0 0 C6.62614711 3.00247291 11.63485377 8.29173185 16 14 C16.66 14.33 17.32 14.66 18 15 C19.44512404 18.6128101 20 21.06687842 20 25 C13.01580869 25.52381435 7.35235142 25.78875636 1.55859375 21.4765625 C-2.17731181 17.93728355 -3.15983371 14.42770271 -3.375 9.4375 C-3.25734992 5.56811975 -2.41273115 3.1164444 0 0 Z " fill="#BFE3F9" transform="translate(192,229)"/>
<path d="M0 0 C3.138935 5.28259792 3.03285705 11.07466219 2 17 C-0.21463349 20.82527603 -2.94963075 23.82712596 -6 27 C-6.66 27.99 -7.32 28.98 -8 30 C-11.125 30.1875 -11.125 30.1875 -14 30 C-14.66 26.37 -15.32 22.74 -16 19 C-16.66 19 -17.32 19 -18 19 C-17 17 -17 17 -15.21875 16.17578125 C-12.3265484 14.64311808 -10.65192891 12.64526813 -8.5 10.1875 C-7.7471875 9.33542969 -6.994375 8.48335937 -6.21875 7.60546875 C-4.09296356 5.10916671 -2.03231705 2.57272863 0 0 Z " fill="#CBE7F9" transform="translate(302,207)"/>
<path d="M0 0 C2.04119788 1.61594832 4.04072937 3.2856382 6 5 C6 5.66 6 6.32 6 7 C8.97 7.33 11.94 7.66 15 8 C13.89973587 11.3007924 13.17290663 11.92480282 10.5625 14.0625 C-0.85758615 23.08928222 -0.85758615 23.08928222 -6 36 C-7.85776765 32.86501708 -8.20140476 30.62528568 -8 27 C-8.33 27.33 -8.66 27.66 -9 28 C-9.66 27.67 -10.32 27.34 -11 27 C-9.10477569 22.57780994 -5.93072137 19.6885548 -2.58203125 16.31640625 C-0.73635668 14.10775974 -0.73635668 14.10775974 -1.1015625 11.390625 C-2.33506817 8.10842731 -4.42151851 6.31402185 -7 4 C-4.69 4.33 -2.38 4.66 0 5 C0 3.35 0 1.7 0 0 Z " fill="#ABD1E9" transform="translate(281,184)"/>
<path d="M0 0 C0.99 0 1.98 0 3 0 C6.02130523 6.56020458 6.1338379 13.768562 3.75 20.5625 C1.99748788 23.00349903 0.61555567 24.52874994 -2 26 C-2.99 26 -3.98 26 -5 26 C-7.73657857 20.64086697 -9.0165819 16.03390549 -8 10 C-6.91938645 7.52422812 -5.80847271 6.07442458 -4 4 C-3.34 4 -2.68 4 -2 4 C-1.34 2.68 -0.68 1.36 0 0 Z " fill="#BEE2F9" transform="translate(306,233)"/>
<path d="M0 0 C1.88654385 4.63775363 3.21225675 7.95005809 3 13 C0.41806023 13.67250524 -2.16532071 14.33817901 -4.75 15 C-5.47960937 15.19078125 -6.20921875 15.3815625 -6.9609375 15.578125 C-10.44571646 16.46515964 -13.38123722 17 -17 17 C-17.10612728 10.45043084 -15.67454591 6.24549518 -11.12109375 1.46484375 C-7.55553787 -0.99755672 -4.14506512 -0.67674533 0 0 Z " fill="#BEE2F9" transform="translate(213,200)"/>
<path d="M0 0 C2.31 0.33 4.62 0.66 7 1 C7.309375 2.11375 7.309375 2.11375 7.625 3.25 C9.39615589 6.79231177 11.63427951 8.02446841 15 10 C15.66 9.67 16.32 9.34 17 9 C17 10.98 17 12.96 17 15 C18.65 14.67 20.3 14.34 22 14 C22.33 14.99 22.66 15.98 23 17 C23.66 17.33 24.32 17.66 25 18 C25.72693904 19.97888961 26.39816251 21.97954558 27 24 C29.97 24 32.94 24 36 24 C36.96877472 21.84977164 36.96877472 21.84977164 37 19 C35.86279279 17.02261732 34.56782225 15.31904042 33.12890625 13.55078125 C32 12 32 12 32 10 C31.4225 9.9175 30.845 9.835 30.25 9.75 C27.3460664 8.78202213 25.96259396 7.31305716 24 5 C24 4.34 24 3.68 24 3 C28.22387885 3.50097168 30.22740797 5.85868604 33.125 8.8125 C33.99382812 9.68519531 34.86265625 10.55789063 35.7578125 11.45703125 C38.94004555 15.06614922 40.06758116 16.71595795 39.8125 21.5625 C39 25 39 25 37.9375 26.9375 C34.51592861 28.8138456 31.67374247 29.02434816 28 28 C24.8672101 25.95007833 22.32030785 23.398268 19.70507812 20.73144531 C17.61295043 18.60696513 15.48599016 16.51963688 13.359375 14.4296875 C10.09137583 11.20281949 6.82795149 7.97174224 3.5859375 4.71875 C2.8954834 4.02716797 2.2050293 3.33558594 1.49365234 2.62304688 C0 1 0 1 0 0 Z " fill="#A4C4DB" transform="translate(349,355)"/>
<path d="M0 0 C0.66 0 1.32 0 2 0 C2.125 7.625 2.125 7.625 1 11 C0.34 11 -0.32 11 -1 11 C-1.04946113 15.21751282 -1.08574827 19.43487168 -1.10986328 23.65258789 C-1.119917 25.08718812 -1.13356194 26.52176789 -1.15087891 27.95629883 C-1.17515549 30.01909438 -1.18648919 32.08161885 -1.1953125 34.14453125 C-1.20578613 35.38565674 -1.21625977 36.62678223 -1.22705078 37.90551758 C-1.2428807 41.16903309 -1.2428807 41.16903309 1 44 C1.14977039 46.24655587 1.22150174 48.49863768 1.25 50.75 C1.59572377 60.20676743 4.74483292 69.11724937 10 77 C9.625 79.1875 9.625 79.1875 9 81 C-4.59117172 64.54540634 -5.17364455 38.09675773 -4 18 C-3.38607071 11.75019987 -2.28412699 5.8734694 0 0 Z " fill="#A2BFD3" transform="translate(147,211)"/>
<path d="M0 0 C10.0206584 3.64387578 18.64195721 10.5102256 27 17 C24.53974941 21.51045941 21.39717963 25.18504423 18 29 C14.90694578 28.39096941 12.80360238 27.40131197 10.25 25.5625 C9.32960938 24.91474609 9.32960938 24.91474609 8.390625 24.25390625 C7.93171875 23.84011719 7.4728125 23.42632812 7 23 C7 22.34 7 21.68 7 21 C6.01 20.67 5.02 20.34 4 20 C7 19 7 19 9.0625 19.8125 C11 21 11 21 13 23 C14.32 21.68 15.64 20.36 17 19 C15.70784207 13.94883719 14.01248201 11.32950635 10 8 C7.66238935 6.65796459 5.30787047 5.40355199 2.890625 4.2109375 C1 3 1 3 0 0 Z " fill="#A9CCDE" transform="translate(297,146)"/>
<path d="M0 0 C1.33332095 2.6666419 0.67102033 4.16680303 0 7 C-0.66 7 -1.32 7 -2 7 C-2.33 12.61 -2.66 18.22 -3 24 C-1.68 24 -0.36 24 1 24 C2.1577506 20.52674819 2.06866652 17.63932552 2 14 C2.33 14 2.66 14 3 14 C3.18175781 14.90492188 3.18175781 14.90492188 3.3671875 15.828125 C3.61855469 17.02695313 3.61855469 17.02695313 3.875 18.25 C4.11863281 19.43335938 4.11863281 19.43335938 4.3671875 20.640625 C4.99150075 22.96831144 5.84838542 24.89031952 7 27 C2.125 28 2.125 28 1 28 C1 28.66 1 29.32 1 30 C1.66 30 2.32 30 3 30 C3.33 30.66 3.66 31.32 4 32 C5.79932579 33.06716704 5.79932579 33.06716704 8 34 C9.10214844 34.5259375 9.10214844 34.5259375 10.2265625 35.0625 C13.53051324 36.17932842 16.14851981 36.12787054 19.625 36 C25.6681128 35.77874187 25.6681128 35.77874187 29 38 C29.38932033 39.98985949 29.71887936 41.99199544 30 44 C31.18612912 46.96532279 32.64213556 48.85648687 35 51 C34.01 51 33.02 51 32 51 C30.6484375 49.390625 30.6484375 49.390625 29.375 47.25 C28.94960937 46.55390625 28.52421875 45.8578125 28.0859375 45.140625 C27.04288438 43.08453468 26.45636264 41.25138904 26 39 C25.154375 39.03480469 24.30875 39.06960938 23.4375 39.10546875 C8.67389347 39.45778209 8.67389347 39.45778209 2.80859375 33.9375 C-3.80528671 26.74386973 -5.49485382 22.41112304 -5.40234375 12.57421875 C-4.83735885 7.55517812 -2.97446832 4.01553224 0 0 Z " fill="#9DC4D9" transform="translate(186,223)"/>
<path d="M0 0 C4.48628009 0.76907659 8.32947498 2.29002687 12.5 4.0625 C14.99334215 4.99750331 17.37963467 5.55079451 20 6 C20 6.66 20 7.32 20 8 C20.66386719 8.06058594 21.32773438 8.12117188 22.01171875 8.18359375 C22.89472656 8.26738281 23.77773437 8.35117187 24.6875 8.4375 C25.99267578 8.55931641 25.99267578 8.55931641 27.32421875 8.68359375 C30 9 30 9 32.36938477 9.50927734 C36.64911106 10.30763 40.90791163 10.18445506 45.25 10.1875 C46.60544922 10.20586914 46.60544922 10.20586914 47.98828125 10.22460938 C53.25031287 10.23596628 57.95015553 9.72129246 63.05322266 8.44750977 C66.72127666 7.60432655 70.26005765 7.88127167 74 8 C57.86417341 16.73232968 36.02883504 14.25991142 19.02099609 9.61621094 C14.43492395 8.2178966 10.21229962 6.26467721 6 4 C4.7720961 3.39327101 3.54314702 2.78864555 2.3125 2.1875 C1.549375 1.795625 0.78625 1.40375 0 1 C0 0.67 0 0.34 0 0 Z " fill="#E5F4F7" transform="translate(204,320)"/>
<path d="M0 0 C3.36704285 -0.2295711 5.41370268 -0.33943529 8.375 1.375 C8.91125 1.91125 9.4475 2.4475 10 3 C10 3.66 10 4.32 10 5 C11.65 5.33 13.3 5.66 15 6 C15 6.66 15 7.32 15 8 C18.12373902 9.14283135 20.93632383 9.99265275 24.25 10.375 C27.5153287 10.91922145 29.80702183 11.66287624 32.8125 12.9375 C37.12335735 14.7567609 41.26730384 15.81476968 45.87109375 16.60546875 C48 17 48 17 51 18 C51 18.66 51 19.32 51 20 C32.72616084 19.57412663 14.87280672 11.22505462 0 1 C0 0.67 0 0.34 0 0 Z " fill="#A5C4D8" transform="translate(187,327)"/>
<path d="M0 0 C0.96228516 0.00491455 1.92457031 0.0098291 2.91601562 0.01489258 C15.86432571 0.2265727 27.24812307 3.69779656 39.25 8.3125 C37.6875 9 37.6875 9 35.25 9.3125 C33.5028455 8.61892644 31.757137 7.91645345 30.05322266 7.12255859 C17.35787625 1.4194501 0.81105827 2.3927283 -12.75 3.3125 C-13.74 3.8075 -13.74 3.8075 -14.75 4.3125 C-16.45702735 4.38246014 -18.16668003 4.39690154 -19.875 4.375 C-20.78507813 4.36597656 -21.69515625 4.35695312 -22.6328125 4.34765625 C-23.33148438 4.33605469 -24.03015625 4.32445312 -24.75 4.3125 C-17.14665058 0.18264653 -8.48054874 -0.05176556 0 0 Z " fill="#EAF8F6" transform="translate(248.75,149.6875)"/>
<path d="M0 0 C1.16208984 0.0012085 1.16208984 0.0012085 2.34765625 0.00244141 C21.38926863 0.20176863 21.38926863 0.20176863 25.375 4.1875 C21.81766167 5.37327944 20.10641312 4.91747171 16.4375 4.25 C4.76438052 2.46812195 -7.97055213 1.7770238 -19.50390625 4.67578125 C-23.16492275 5.55900991 -26.88153289 5.82522899 -30.625 6.1875 C-28.14237232 3.70487232 -26.39477737 3.44576263 -23 2.625 C-21.99710938 2.37621094 -20.99421875 2.12742188 -19.9609375 1.87109375 C-13.28522808 0.50312051 -6.79460223 -0.00743717 0 0 Z " fill="#ACC4D5" transform="translate(248.625,134.8125)"/>
<path d="M0 0 C1.60416667 0.29166667 3.20833333 0.58333333 4.8125 0.875 C5.83214844 1.05546875 6.85179687 1.2359375 7.90234375 1.421875 C9.75648069 1.76791821 11.6060115 2.14350352 13.44140625 2.578125 C29.72272396 6.23684808 46.05798633 4.0811555 62 0 C62 0.66 62 1.32 62 2 C60.80375 2.474375 59.6075 2.94875 58.375 3.4375 C57.70210938 3.70433594 57.02921875 3.97117187 56.3359375 4.24609375 C49.35865103 6.49796045 41.94538016 6.39437075 34.6875 6.6875 C32.90956055 6.77741211 32.90956055 6.77741211 31.09570312 6.86914062 C23.33230684 7.1834656 16.6632669 6.88751279 9.375 3.9375 C6.29759977 2.72273675 3.27336904 2.38510224 0 2 C0 1.34 0 0.68 0 0 Z " fill="#A4C7DB" transform="translate(218,328)"/>
<path d="M0 0 C1.49760742 0.72719138 2.98777846 1.46996985 4.46875 2.23046875 C7.79733558 3.54816398 10.1417865 2.92506914 13.55078125 2.0546875 C13.22078125 3.0446875 12.89078125 4.0346875 12.55078125 5.0546875 C11.11667757 5.30422755 9.67818053 5.52861392 8.23828125 5.7421875 C7.43777344 5.86980469 6.63726562 5.99742187 5.8125 6.12890625 C3.55078125 6.0546875 3.55078125 6.0546875 1.9453125 4.63671875 C1.48511719 4.11464844 1.02492187 3.59257812 0.55078125 3.0546875 C-5.00030619 1.20432502 -11.4914481 0.87249213 -16.98046875 3.06640625 C-21.29112838 5.64088397 -21.29112838 5.64088397 -23.44921875 10.0546875 C-25.51171875 11.2421875 -25.51171875 11.2421875 -27.44921875 12.0546875 C-27.77921875 11.0646875 -28.10921875 10.0746875 -28.44921875 9.0546875 C-21.38356476 0.81142451 -10.67281389 -4.11933168 0 0 Z " fill="#9DC1D8" transform="translate(242.44921875,178.9453125)"/>
<path d="M0 0 C2.37569773 2.42262509 4.12374074 5.1856111 6 8 C7.31925354 9.67783362 8.65341084 11.344025 10 13 C10.67160156 13.84820312 11.34320313 14.69640625 12.03515625 15.5703125 C12.70417969 16.41335938 13.37320312 17.25640625 14.0625 18.125 C14.73410156 18.97320312 15.40570313 19.82140625 16.09765625 20.6953125 C17.89811007 22.9661281 17.89811007 22.9661281 19.74609375 24.6796875 C21 26 21 26 21 28 C25.62 28 30.24 28 35 28 C34.67 28.66 34.34 29.32 34 30 C32.0390625 30.4140625 32.0390625 30.4140625 29.625 30.625 C28.83351563 30.69976562 28.04203125 30.77453125 27.2265625 30.8515625 C25.48753275 30.96749782 23.74288998 31 22 31 C20.97971135 29.68212715 19.98028616 28.34789347 19 27 C18.01 26.67 17.02 26.34 16 26 C15.67 25.01 15.34 24.02 15 23 C14.01 22.67 13.02 22.34 12 22 C11.731875 21.319375 11.46375 20.63875 11.1875 19.9375 C9.26087286 15.17163286 6.02469304 10.9358497 2.30859375 7.3828125 C1 6 1 6 1 4 C-2.3 3.34 -5.6 2.68 -9 2 C-5.42762392 -0.38158405 -4.20126369 -0.82377719 0 0 Z " fill="#E7F5F6" transform="translate(247,278)"/>
<path d="M0 0 C2.475 0.495 2.475 0.495 5 1 C5.33 1.99 5.66 2.98 6 4 C6.99 4.33 7.98 4.66 9 5 C10.53515625 6.59375 10.53515625 6.59375 12.0625 8.5 C14.17721767 11.18106401 14.17721767 11.18106401 17 13 C17 13.66 17 14.32 17 15 C17.99 14.67 18.98 14.34 20 14 C20.680625 14.7115625 20.680625 14.7115625 21.375 15.4375 C22.93258204 17.09027808 22.93258204 17.09027808 25 18 C25 20.31 25 22.62 25 25 C19.20879999 20.18825126 13.87191517 15.02258518 8.5625 9.6875 C7.73556641 8.86443359 6.90863281 8.04136719 6.05664062 7.19335938 C5.27611328 6.41154297 4.49558594 5.62972656 3.69140625 4.82421875 C2.98185791 4.11354248 2.27230957 3.40286621 1.54125977 2.6706543 C0 1 0 1 0 0 Z " fill="#A8C9DE" transform="translate(322,328)"/>
<path d="M0 0 C0.33 0 0.66 0 1 0 C0.98952637 0.69971924 0.97905273 1.39943848 0.96826172 2.12036133 C0.92618385 5.35103632 0.90051148 8.58165334 0.875 11.8125 C0.85824219 12.91271484 0.84148437 14.01292969 0.82421875 15.14648438 C0.7599834 26.03437576 2.72599184 35.67024165 6 46 C6.68051696 48.32962249 7.33995876 50.66446946 8 53 C6.02 52.34 4.04 51.68 2 51 C1.95101562 50.2265625 1.90203125 49.453125 1.8515625 48.65625 C1.77679688 47.6146875 1.70203125 46.573125 1.625 45.5 C1.55539063 44.4790625 1.48578125 43.458125 1.4140625 42.40625 C1.08271788 38.93318932 1.08271788 38.93318932 -0.02734375 35.41796875 C-1.54800125 29.63309957 -1.25071926 23.75178323 -1.1875 17.8125 C-1.18685547 16.65041016 -1.18621094 15.48832031 -1.18554688 14.29101562 C-1.1601221 9.3783838 -1.10345981 4.80514096 0 0 Z " fill="#A1C6DB" transform="translate(158,226)"/>
<path d="M0 0 C0.33 0 0.66 0 1 0 C0.67 11.22 0.34 22.44 0 34 C0.66 34 1.32 34 2 34 C3.59162079 39.57067277 4.20674944 44.21101581 4 50 C-2.37859123 43.62140877 -2.0470595 30.38920515 -2.1875 21.875 C-2.15006699 14.42583147 -1.26602718 7.33617536 0 0 Z " fill="#E3F3F6" transform="translate(160,222)"/>
<path d="M0 0 C2.64 0.33 5.28 0.66 8 1 C6.89973587 4.3007924 6.17290663 4.92480282 3.5625 7.0625 C0.13181531 9.98976901 -3.19026162 12.99440093 -6.4375 16.125 C-7.70400391 17.33542969 -7.70400391 17.33542969 -8.99609375 18.5703125 C-11.12603422 21.15281342 -11.67808621 22.71062635 -12 26 C-12.33 26 -12.66 26 -13 26 C-13.41073566 22.64565874 -13.70135234 20.05314177 -11.76953125 17.15234375 C-10.70841032 15.96022024 -9.62578872 14.7869173 -8.5234375 13.6328125 C-6.64174313 11.61602212 -5.38555012 9.37522878 -4 7 C-2.5 5.1875 -2.5 5.1875 -1 4 C-0.01 4 0.98 4 2 4 C2.33 3.34 2.66 2.68 3 2 C2.01 1.67 1.02 1.34 0 1 C0 0.67 0 0.34 0 0 Z " fill="#BFD9E8" transform="translate(288,191)"/>
<path d="M0 0 C3.27086929 4.90630393 2.5387828 10.26628679 2 16 C-0.03024423 23.52836509 -4.50005634 28.74141622 -11 33 C-11.66 33 -12.32 33 -13 33 C-13.103125 34.03125 -13.20625 35.0625 -13.3125 36.125 C-13.99127797 39.95083945 -15.11158795 42.63370025 -17 46 C-17.66 46 -18.32 46 -19 46 C-17.94513949 39.87903309 -16.34782974 35.24493326 -13 30 C-11.68 30 -10.36 30 -9 30 C-9 29.34 -9 28.68 -9 28 C-8.01 28 -7.02 28 -6 28 C-5.34 26.35 -4.68 24.7 -4 23 C-3.34 23 -2.68 23 -2 23 C0.48260659 15.39701733 0.18508331 7.89688807 0 0 Z " fill="#A4C4D7" transform="translate(317,234)"/>
<path d="M0 0 C6.90509399 5.9415925 10.46786894 19.3599298 11.1796875 28.2421875 C11.18606122 29.82924284 11.1055702 31.41644697 11 33 C10.34 33 9.68 33 9 33 C5.93561347 21.26282141 5.93561347 21.26282141 5.5625 17 C5.27696306 13.88351292 5.27696306 13.88351292 2.9375 12 C1 10 1 10 0.75 6.25 C0.8325 5.1775 0.915 4.105 1 3 C0.34 3 -0.32 3 -1 3 C-0.67 2.01 -0.34 1.02 0 0 Z " fill="#A3BFD3" transform="translate(343,191)"/>
<path d="M0 0 C3.4375 -0.375 3.4375 -0.375 7 0 C8.625 1.4375 8.625 1.4375 10 3 C12.60611077 3.72197162 12.60611077 3.72197162 15 4 C15.33 5.65 15.66 7.3 16 9 C11.94568308 10.15837626 9.78187881 9.83691257 6 8 C6 7.34 6 6.68 6 6 C5.34 6 4.68 6 4 6 C4 5.34 4 4.68 4 4 C1.03 3.505 1.03 3.505 -2 3 C-1.34 2.01 -0.68 1.02 0 0 Z " fill="#91C4E6" transform="translate(266,180)"/>
<path d="M0 0 C-20.168426 11.60713496 -20.168426 11.60713496 -31 13 C-31.33 12.01 -31.66 11.02 -32 10 C-31.34 10 -30.68 10 -30 10 C-30 9.34 -30 8.68 -30 8 C-29.13117188 7.89042969 -28.26234375 7.78085937 -27.3671875 7.66796875 C-18.74127594 6.60784076 -18.74127594 6.60784076 -11 3 C-10.67 2.34 -10.34 1.68 -10 1 C-6.18004171 -0.61287128 -3.94567184 -1.20681069 0 0 Z " fill="#A6C4D9" transform="translate(308,331)"/>
<path d="M0 0 C2.32472205 2.85306797 3.7508258 5.54074837 5 9 C3.68 9 2.36 9 1 9 C0.34 8.01 -0.32 7.02 -1 6 C-3.55503957 7.28288757 -3.55503957 7.28288757 -6 9 C-6 9.99 -6 10.98 -6 12 C-7.5 13.6875 -7.5 13.6875 -9 15 C-9.33 14.01 -9.66 13.02 -10 12 C-10.66 12 -11.32 12 -12 12 C-12 9 -12 9 -10.390625 7.24609375 C-9.33101563 6.35083984 -9.33101563 6.35083984 -8.25 5.4375 C-7.55390625 4.83808594 -6.8578125 4.23867187 -6.140625 3.62109375 C-4.15522037 2.11754827 -2.2624561 1.02421999 0 0 Z " fill="#C4DCE9" transform="translate(335,176)"/>
<path d="M0 0 C0.66 0.33 1.32 0.66 2 1 C1.49210937 1.78761719 0.98421875 2.57523438 0.4609375 3.38671875 C-7.33053225 15.71591714 -12.6597577 27.79414599 -16 42 C-16.33 42 -16.66 42 -17 42 C-17.08172652 40.27163534 -17.13951818 38.54213041 -17.1875 36.8125 C-17.22230469 35.84957031 -17.25710937 34.88664062 -17.29296875 33.89453125 C-16.94811073 30.48733405 -15.82353496 28.87174271 -14 26 C-12.67101014 22.35338149 -11.47631479 18.67681878 -10.28125 14.984375 C-9.64703125 13.50710937 -9.64703125 13.50710937 -9 12 C-8.01 11.67 -7.02 11.34 -6 11 C-6 10.01 -6 9.02 -6 8 C-5.34 8 -4.68 8 -4 8 C-3.855625 7.38125 -3.71125 6.7625 -3.5625 6.125 C-3 4 -3 4 -2 2 C-1.34 2 -0.68 2 0 2 C0 1.34 0 0.68 0 0 Z " fill="#A6C8D9" transform="translate(176,184)"/>
<path d="M0 0 C0.33 0 0.66 0 1 0 C1.45723074 5.3343586 -0.43746427 8.10263519 -3.75 12.125 C-8.576123 16.14676917 -13.85973425 17.37344227 -20 18 C-20 21.3 -20 24.6 -20 28 C-22.1991413 23.60171741 -22.51855059 20.81449408 -23 16 C-22.41992188 15.96261719 -21.83984375 15.92523438 -21.2421875 15.88671875 C-14.56235614 15.32455472 -10.09799094 14.19557191 -5.3125 9.1875 C-3.15569813 6.21461094 -1.51099385 3.34009168 0 0 Z " fill="#DFF1F5" transform="translate(303,272)"/>
<path d="M0 0 C0 0.66 0 1.32 0 2 C1.65 2 3.3 2 5 2 C5.495 2.99 5.495 2.99 6 4 C1.78696851 3.53188539 -2.25274308 2.95279571 -6.375 1.96875 C-13.10307159 0.60224646 -19.78726565 0.78345464 -26.625 0.875 C-27.91535156 0.88402344 -29.20570313 0.89304688 -30.53515625 0.90234375 C-33.69030249 0.9257152 -36.84504926 0.95847909 -40 1 C-28.02600588 -5.10715562 -12.84522908 -1.76091268 0 0 Z " fill="#A5C8DA" transform="translate(272,150)"/>
<path d="M0 0 C0.66 0.33 1.32 0.66 2 1 C-0.626591 3.91843445 -3.66976339 5.94517315 -7 8 C-7.66 8 -8.32 8 -9 8 C-9 8.66 -9 9.32 -9 10 C-9.73863281 10.43957031 -10.47726563 10.87914062 -11.23828125 11.33203125 C-14.22281828 13.13457342 -15.96610294 15.01924551 -18.1875 17.6875 C-19.41651742 19.16091094 -20.67872389 20.60872251 -22 22 C-22.66 22 -23.32 22 -24 22 C-24.99 24.475 -24.99 24.475 -26 27 C-26.99 26.67 -27.98 26.34 -29 26 C-20.81135608 15.18290248 -11.48109035 7.22883467 0 0 Z " fill="#E8F6F6" transform="translate(205,161)"/>
<path d="M0 0 C3.23482269 4.85223403 3.1565394 9.49470633 3.3515625 15.234375 C3.37471527 15.91300598 3.39786804 16.59163696 3.42172241 17.29083252 C3.46911154 18.71611854 3.51437381 20.14147671 3.55761719 21.56689453 C3.62521992 23.75712497 3.70284794 25.94685127 3.78125 28.13671875 C3.82612357 29.52341813 3.87041519 30.91013648 3.9140625 32.296875 C3.9548291 33.55854492 3.9955957 34.82021484 4.03759766 36.12011719 C4 39 4 39 3 40 C2.76924918 41.34747084 2.58846937 42.70377565 2.4375 44.0625 C2.293125 45.361875 2.14875 46.66125 2 48 C0.515 48.495 0.515 48.495 -1 49 C-0.85892253 47.54119891 -0.71197585 46.08296449 -0.5625 44.625 C-0.48128906 43.81289063 -0.40007812 43.00078125 -0.31640625 42.1640625 C0 40 0 40 1 38 C1.09728734 36.09702295 1.13076692 34.19061742 1.1328125 32.28515625 C1.13410156 31.12306641 1.13539063 29.96097656 1.13671875 28.76367188 C1.13285156 27.54228516 1.12898438 26.32089844 1.125 25.0625 C1.12886719 23.87591797 1.13273437 22.68933594 1.13671875 21.46679688 C1.12879826 14.25519459 0.8035984 7.16740214 0 0 Z " fill="#A5CADC" transform="translate(339,218)"/>
<path d="M0 0 C0.66 0.33 1.32 0.66 2 1 C-4.80980839 8.83443234 -11.82639612 16.879849 -21 22 C-21.99 21.67 -22.98 21.34 -24 21 C-23.505 19.515 -23.505 19.515 -23 18 C-19.535 17.505 -19.535 17.505 -16 17 C-16 16.01 -16 15.02 -16 14 C-15.21625 13.938125 -14.4325 13.87625 -13.625 13.8125 C-12.325625 13.4103125 -12.325625 13.4103125 -11 13 C-10.731875 12.29875 -10.46375 11.5975 -10.1875 10.875 C-8.34477078 6.41365556 -4.67365029 4.00351188 -1 1 C-0.67 0.67 -0.34 0.34 0 0 Z " fill="#E8F6F6" transform="translate(320,297)"/>
<path d="M0 0 C0.66 0.66 1.32 1.32 2 2 C1.1953252 10.912153 -5.54664865 19.25099425 -11 26 C-11.33 24.68 -11.66 23.36 -12 22 C-11.34 22 -10.68 22 -10 22 C-9.67 20.68 -9.34 19.36 -9 18 C-8.34 18 -7.68 18 -7 18 C-6.731875 16.7625 -6.46375 15.525 -6.1875 14.25 C-5.33887353 10.81938234 -4.2157726 8.76971575 -2 6 C-1.27648573 4.01985568 -0.59734611 2.02178685 0 0 Z " fill="#9EC0D8" transform="translate(345,281)"/>
<path d="M0 0 C0.99 0 1.98 0 3 0 C3.33 0.99 3.66 1.98 4 3 C3.4225 3.556875 2.845 4.11375 2.25 4.6875 C-3.22721992 10.31686492 -5.56162443 15.59408272 -8 23 C-8.66 23 -9.32 23 -10 23 C-10.33 23.66 -10.66 24.32 -11 25 C-10.44912691 19.60144375 -8.52800376 15.54713997 -6.0625 10.8125 C-5.70220703 10.10158203 -5.34191406 9.39066406 -4.97070312 8.65820312 C-3.43043603 5.64291045 -1.88274622 2.82411932 0 0 Z " fill="#9EBED2" transform="translate(161,181)"/>
<path d="M0 0 C0.825 0.763125 1.65 1.52625 2.5 2.3125 C9.8444798 8.3278164 17.84359057 8.5952197 27 9 C27.33 10.32 27.66 11.64 28 13 C27.01 12.67 26.02 12.34 25 12 C23.25270433 11.82471397 21.50196804 11.68239725 19.75 11.5625 C15.23402145 11.19066644 11.2904182 10.4301394 7 9 C7 8.34 7 7.68 7 7 C5.824375 6.7834375 5.824375 6.7834375 4.625 6.5625 C2 6 2 6 0 5 C0 3.35 0 1.7 0 0 Z " fill="#E4F4F4" transform="translate(185,253)"/>
<path d="M0 0 C0.66 0.33 1.32 0.66 2 1 C0.59310776 2.96604172 -0.82465249 4.92240796 -2.25 6.875 C-2.64574219 7.43058594 -3.04148438 7.98617187 -3.44921875 8.55859375 C-5.72894405 11.66051506 -7.5249131 13.41622146 -11 15 C-11.33 15.99 -11.66 16.98 -12 18 C-12.99 18.33 -13.98 18.66 -15 19 C-14.40555907 15.56291207 -13.20565816 13.75331426 -10.875 11.1875 C-10.25238281 10.50042969 -9.62976563 9.81335938 -8.98828125 9.10546875 C-6.05790237 6.00237599 -3.05940942 2.97571737 0 0 Z " fill="#9EBCD3" transform="translate(180,160)"/>
<path d="M0 0 C1.875 0.125 1.875 0.125 4 1 C5.25 4.0625 5.25 4.0625 6 7 C5.34 7 4.68 7 4 7 C4 7.66 4 8.32 4 9 C1.5 10.625 1.5 10.625 -1 12 C-1.2226746 10.56465159 -1.42761906 9.12654475 -1.625 7.6875 C-1.74101562 6.88699219 -1.85703125 6.08648437 -1.9765625 5.26171875 C-2 3 -2 3 0 0 Z " fill="#AACFE7" transform="translate(305,203)"/>
<path d="M0 0 C1.65 1.32 3.3 2.64 5 4 C-1.01604278 12.68983957 -1.01604278 12.68983957 -4 15 C-6.12109375 14.59375 -6.12109375 14.59375 -8 14 C-7.05016642 12.49460339 -6.08988109 10.99579653 -5.125 9.5 C-4.59132813 8.6646875 -4.05765625 7.829375 -3.5078125 6.96875 C-3.01023437 6.3190625 -2.51265625 5.669375 -2 5 C-1.34 5 -0.68 5 0 5 C0 3.35 0 1.7 0 0 Z " fill="#C8DDEA" transform="translate(319,160)"/>
<path d="M0 0 C1.32 0.66 2.64 1.32 4 2 C3.67 2.66 3.34 3.32 3 4 C2.34 4 1.68 4 1 4 C0.731875 4.5775 0.46375 5.155 0.1875 5.75 C-1.01719859 8.0325868 -2.40798115 9.9737942 -4 12 C-6.9719385 10.87548273 -9.33440687 9.77706209 -12 8 C-12 7.34 -12 6.68 -12 6 C-12.99 5.67 -13.98 5.34 -15 5 C-12 4 -12 4 -9.9375 4.8125 C-8 6 -8 6 -6 8 C-3.33264727 5.51047079 -1.44253657 3.36591866 0 0 Z " fill="#B0D3E7" transform="translate(316,161)"/>
<path d="M0 0 C1.890625 0.26171875 1.890625 0.26171875 4 1 C5.046875 2.70703125 5.046875 2.70703125 5.75 4.8125 C5.99234375 5.49957031 6.2346875 6.18664062 6.484375 6.89453125 C7 9 7 9 7 13 C7.66 13 8.32 13 9 13 C12.44419134 22.41002278 12.44419134 22.41002278 12 27 C9.38618744 24.38618744 8.84864452 21.94362694 7.6875 18.4375 C5.90479993 13.1899001 3.81076847 8.40716563 0.91796875 3.671875 C0 2 0 2 0 0 Z " fill="#A5C8DD" transform="translate(327,191)"/>
<path d="M0 0 C2.04173535 3.37698788 2.23525039 5.94546223 2.1953125 9.859375 C2.18886719 10.97441406 2.18242187 12.08945313 2.17578125 13.23828125 C2.15902344 14.39714844 2.14226562 15.55601562 2.125 16.75 C2.11597656 17.92433594 2.10695313 19.09867188 2.09765625 20.30859375 C2.07410063 23.20593536 2.04120652 26.10286441 2 29 C0.07742176 25.73678443 -0.30382556 23.15832396 -0.44921875 19.39453125 C-0.49240234 18.32912109 -0.53558594 17.26371094 -0.58007812 16.16601562 C-0.61552734 15.05935547 -0.65097656 13.95269531 -0.6875 12.8125 C-0.73455078 11.69423828 -0.78160156 10.57597656 -0.83007812 9.42382812 C-1.05547948 3.33799149 -1.05547948 3.33799149 -1 1 C-0.67 0.67 -0.34 0.34 0 0 Z " fill="#9CBDD1" transform="translate(354,225)"/>
<path d="M0 0 C1.03864166 3.11592499 1.09036928 4.0262656 0 7 C-0.99 7.495 -0.99 7.495 -2 8 C-3.05158373 10.13245949 -4.01703623 12.30775041 -4.9375 14.5 C-5.20256348 15.12986816 -5.46762695 15.75973633 -5.74072266 16.40869141 C-7.73575794 21.20928337 -9.45988122 26.03739506 -11 31 C-12.98403536 25.3895159 -10.15991671 20.22896727 -8 15 C-5.52959943 9.89532689 -2.78076131 4.94057592 0 0 Z " fill="#E6F4F4" transform="translate(173,191)"/>
<path d="M0 0 C0.2475 0.53625 0.495 1.0725 0.75 1.625 C2.04181958 4.18746595 2.04181958 4.18746595 4.125 7.125 C6 10 6 10 6 12 C6.66 12 7.32 12 8 12 C8.3403125 13.11375 8.3403125 13.11375 8.6875 14.25 C10.24874987 17.52119021 12.15998042 18.81536955 15 21 C15.33 21.99 15.66 22.98 16 24 C15.01 24 14.02 24 13 24 C11.02734375 21.91796875 11.02734375 21.91796875 8.9375 19.1875 C8.24527344 18.29417969 7.55304688 17.40085937 6.83984375 16.48046875 C3 11.30360934 3 11.30360934 3 8 C2.34 8 1.68 8 1 8 C-0.42944945 5.64561267 -1.08661261 4.51967567 -0.625 1.75 C-0.41875 1.1725 -0.2125 0.595 0 0 Z " fill="#E8F6F7" transform="translate(168,278)"/>
<path d="M0 0 C2.16874252 0.50603992 3.99967627 0.99983813 6 2 C7.62268991 2.09611752 9.24947306 2.12982352 10.875 2.125 C11.73867187 2.12757813 12.60234375 2.13015625 13.4921875 2.1328125 C15.81978485 2.0095441 17.75579264 1.58166191 20 1 C22.33300933 0.96111651 24.66709801 0.9551365 27 1 C27.33 2.65 27.66 4.3 28 6 C27.34 5.67 26.68 5.34 26 5 C26 4.34 26 3.68 26 3 C25.18208984 3.2165625 25.18208984 3.2165625 24.34765625 3.4375 C14.87956054 5.76810818 8.55991689 5.98031528 0 1 C0 0.67 0 0.34 0 0 Z " fill="#A1C3D6" transform="translate(221,275)"/>
<path d="M0 0 C0.99 0.33 1.98 0.66 3 1 C-0.63542973 5.45633321 -3.17422494 6.50230445 -8.78125 7.46484375 C-12.10899335 8.26748607 -14.2573985 9.99321842 -17 12 C-17.66 12 -18.32 12 -19 12 C-19.66 13.65 -20.32 15.3 -21 17 C-22 14 -22 14 -20.5625 11 C-17.02276088 6.85591518 -13.34676142 5.28362385 -7.92578125 4.82421875 C-6.28283943 4.81422113 -4.63977268 4.89751421 -3 5 C-2.690625 4.360625 -2.38125 3.72125 -2.0625 3.0625 C-1 1 -1 1 0 0 Z " fill="#E7F6F5" transform="translate(213,186)"/>
<path d="M0 0 C0.33 1.32 0.66 2.64 1 4 C0.34 4 -0.32 4 -1 4 C-1 4.66 -1 5.32 -1 6 C-1.66 6 -2.32 6 -3 6 C-3.33 6.99 -3.66 7.98 -4 9 C-5.33333333 9.66666667 -6.66666667 10.33333333 -8 11 C-9.70496537 12.62746694 -11.37897032 14.28891311 -13 16 C-13.99 15.34 -14.98 14.68 -16 14 C-15.26394531 13.40832031 -14.52789062 12.81664062 -13.76953125 12.20703125 C-12.79371094 11.41683594 -11.81789063 10.62664062 -10.8125 9.8125 C-9.36810547 8.64654297 -9.36810547 8.64654297 -7.89453125 7.45703125 C-5.09649579 5.08191073 -2.5544533 2.62917223 0 0 Z " fill="#A2C8DD" transform="translate(317,303)"/>
<path d="M0 0 C1.00417969 0.00902344 2.00835937 0.01804688 3.04296875 0.02734375 C5.48724126 0.05062254 7.93098408 0.08331513 10.375 0.125 C10.375 0.455 10.375 0.785 10.375 1.125 C9.1684375 1.17398438 7.961875 1.22296875 6.71875 1.2734375 C5.10414694 1.34853532 3.48956461 1.42408003 1.875 1.5 C1.08351562 1.5309375 0.29203125 1.561875 -0.5234375 1.59375 C-4.44092068 1.78641311 -8.0784305 2.14425051 -11.875 3.15625 C-15.17662032 4.00916858 -17.748332 4.34379633 -21.125 4.25 C-21.9809375 4.23195312 -22.836875 4.21390625 -23.71875 4.1953125 C-24.3478125 4.17210937 -24.976875 4.14890625 -25.625 4.125 C-17.6698678 -0.18393569 -8.83889894 -0.15341213 0 0 Z " fill="#DFF2F6" transform="translate(249.625,149.875)"/>
<path d="M0 0 C2.475 0.99 2.475 0.99 5 2 C5 2.66 5 3.32 5 4 C5.67417969 4.25523437 6.34835938 4.51046875 7.04296875 4.7734375 C10.55132756 6.22868805 13.92678552 7.90947835 17.3125 9.625 C17.95767578 9.94984375 18.60285156 10.2746875 19.26757812 10.609375 C20.84597541 11.40441956 22.42311694 12.20195634 24 13 C20.44757118 14.18414294 19.30169438 13.69535532 15.8125 12.5625 C14.91144531 12.27503906 14.01039063 11.98757813 13.08203125 11.69140625 C12.39496094 11.46324219 11.70789063 11.23507812 11 11 C11 10.01 11 9.02 11 8 C10.278125 7.71125 9.55625 7.4225 8.8125 7.125 C7.884375 6.75375 6.95625 6.3825 6 6 C4.63875 5.566875 4.63875 5.566875 3.25 5.125 C1 4 1 4 0.1875 1.875 C0.125625 1.25625 0.06375 0.6375 0 0 Z " fill="#A4C8DA" transform="translate(192,313)"/>
<path d="M0 0 C0.66 0 1.32 0 2 0 C1.84015625 0.51691406 1.6803125 1.03382813 1.515625 1.56640625 C0.84779521 4.71836046 0.79125106 7.71647947 0.75 10.9375 C0.72421875 12.14277344 0.6984375 13.34804687 0.671875 14.58984375 C1.02337562 18.24293949 2.03186919 19.97751339 4 23 C3.67 23.66 3.34 24.32 3 25 C-0.19106899 22.87262067 -0.7473898 21.88174239 -1.65234375 18.26953125 C-2.58739674 12.16542129 -3.27472232 5.4448756 0 0 Z " fill="#E6F5F8" transform="translate(181,228)"/>
<path d="M0 0 C4.04160556 -0.05831395 8.08310205 -0.09370212 12.125 -0.125 C13.83816406 -0.15013672 13.83816406 -0.15013672 15.5859375 -0.17578125 C16.69453125 -0.18222656 17.803125 -0.18867188 18.9453125 -0.1953125 C20.46922607 -0.21102295 20.46922607 -0.21102295 22.02392578 -0.22705078 C25.28288429 0.02158182 27.95115207 0.85121636 31 2 C27.21023859 4.5265076 26.08205329 3.95891083 21.6875 3.1875 C14.45146159 2.01796303 7.31619283 1.4225157 0 1 C0 0.67 0 0.34 0 0 Z " fill="#97BDD3" transform="translate(243,136)"/>
<path d="M0 0 C-3.58246876 1.97216715 -7.36963225 3.14569565 -11.25 4.375 C-16.77614807 6.16355972 -21.90861115 8.19454084 -27 11 C-27.33 10.34 -27.66 9.68 -28 9 C-25.35261084 7.5393715 -24.10551666 7 -21 7 C-21 6.34 -21 5.68 -21 5 C-15.30585026 0.44468021 -7.07742812 -0.37249622 0 0 Z " fill="#A3C7D9" transform="translate(232,151)"/>
<path d="M0 0 C1.36523593 3.10280894 0.89965502 4.30631624 -0.1875 7.625 C-1.94781917 10.90283569 -2.5458087 11.9280096 -6 13 C-6 13.66 -6 14.32 -6 15 C-7.65 15.66 -9.3 16.32 -11 17 C-10.401875 16.113125 -9.80375 15.22625 -9.1875 14.3125 C-7.85250596 12.2909376 -6.56705109 10.23401347 -5.375 8.125 C-4.92125 7.42375 -4.4675 6.7225 -4 6 C-3.34 6 -2.68 6 -2 6 C-1.34 4.02 -0.68 2.04 0 0 Z " fill="#A6CBE0" transform="translate(329,286)"/>
<path d="M0 0 C0.66 0.33 1.32 0.66 2 1 C0.62500127 2.70451912 -0.77579293 4.38825686 -2.1875 6.0625 C-2.96480469 7.00222656 -3.74210937 7.94195312 -4.54296875 8.91015625 C-7 11 -7 11 -9.80078125 10.80859375 C-10.52652344 10.54175781 -11.25226563 10.27492187 -12 10 C-12 9.34 -12 8.68 -12 8 C-13.32 7.34 -14.64 6.68 -16 6 C-15.67 5.34 -15.34 4.68 -15 4 C-14.34 4.33 -13.68 4.66 -13 5 C-13 5.66 -13 6.32 -13 7 C-10.03 7.495 -10.03 7.495 -7 8 C-6.6596875 7.13375 -6.6596875 7.13375 -6.3125 6.25 C-4.66961977 3.4336339 -2.60466773 1.91922886 0 0 Z " fill="#DFEFF6" transform="translate(294,214)"/>
<path d="M0 0 C0.66 0.66 1.32 1.32 2 2 C1.828125 4.35546875 1.828125 4.35546875 1.25 7.1875 C1.05148437 8.1671875 0.85296875 9.146875 0.6484375 10.15625 C-0.11127994 13.48802288 -0.98499086 16.73747063 -2 20 C-2.33 20 -2.66 20 -3 20 C-3.55353075 6.3667426 -3.55353075 6.3667426 0 0 Z " fill="#A7C3D9" transform="translate(353,257)"/>
<path d="M0 0 C1.96875 1.0703125 1.96875 1.0703125 2.96875 3.0703125 C1.31875 3.0703125 -0.33125 3.0703125 -2.03125 3.0703125 C-2.36125 2.0803125 -2.69125 1.0903125 -3.03125 0.0703125 C-9.30125 0.0703125 -15.57125 0.0703125 -22.03125 0.0703125 C-16.02929526 -5.93164224 -6.84004925 -2.85002052 0 0 Z " fill="#9DC2D6" transform="translate(278.03125,180.9296875)"/>
<path d="M0 0 C2.37300527 2.41987945 4.14208642 5.17659762 6 8 C7.32481269 9.67344761 8.65407903 11.34348188 10 13 C9.01 13.495 9.01 13.495 8 14 C6.82739389 12.71372289 5.6620717 11.42080217 4.5 10.125 C3.8503125 9.40570313 3.200625 8.68640625 2.53125 7.9453125 C1 6 1 6 1 4 C-2.3 3.34 -5.6 2.68 -9 2 C-5.42762392 -0.38158405 -4.20126369 -0.82377719 0 0 Z " fill="#DEEEF3" transform="translate(247,278)"/>
<path d="M0 0 C0.99 0.33 1.98 0.66 3 1 C3 1.99 3 2.98 3 4 C3.99 4.33 4.98 4.66 6 5 C9.69871603 8.42269244 12.68444225 11.79329712 13 17 C8.1596523 12.46217403 3.85310406 7.40199452 0 2 C0 1.34 0 0.68 0 0 Z " fill="#A0C4D8" transform="translate(256,289)"/>
<path d="M0 0 C2.04119788 1.61594832 4.04072937 3.2856382 6 5 C6 5.66 6 6.32 6 7 C6.66 7.33 7.32 7.66 8 8 C7.21625 8.28875 6.4325 8.5775 5.625 8.875 C2.90328368 9.84912254 2.90328368 9.84912254 1 12 C-0.32 10.35 -1.64 8.7 -3 7 C-2.01 7 -1.02 7 0 7 C0 4.69 0 2.38 0 0 Z " fill="#B5D4E9" transform="translate(276,217)"/>
<path d="M0 0 C4.33333333 4.33333333 8.66666667 8.66666667 13 13 C12.34 13.66 11.68 14.32 11 15 C10.773125 14.38125 10.54625 13.7625 10.3125 13.125 C9.1635744 10.79078019 9.1635744 10.79078019 6.625 10.0625 C3.24848323 8.69581464 1.95295255 7.03792619 0 4 C0 2.68 0 1.36 0 0 Z " fill="#B6D0DF" transform="translate(329,311)"/>
<path d="M0 0 C2.78388975 1.70625501 3.85384206 2.47626739 4.75 5.6875 C4.87375 6.8321875 4.87375 6.8321875 5 8 C2.50935112 8.68707555 0.62113708 9 -2 9 C-4.6875 6.5 -4.6875 6.5 -7 4 C-4.69 4.33 -2.38 4.66 0 5 C0 3.35 0 1.7 0 0 Z " fill="#A4CBE2" transform="translate(281,184)"/>
<path d="M0 0 C4.88049925 3.9419417 9.0580583 8.11950075 13 13 C11.68 12.67 10.36 12.34 9 12 C9 11.34 9 10.68 9 10 C8.071875 9.773125 7.14375 9.54625 6.1875 9.3125 C2.45576433 7.77590296 1.59671096 6.63695275 0 3 C0 2.01 0 1.02 0 0 Z " fill="#A7C9DB" transform="translate(179,300)"/>
<path d="M0 0 C0.66 0.99 1.32 1.98 2 3 C-1.75 4.125 -1.75 4.125 -4 3 C-6.02914845 3.99367798 -6.02914845 3.99367798 -8.125 5.4375 C-8.84945313 5.91058594 -9.57390625 6.38367188 -10.3203125 6.87109375 C-10.87460937 7.24363281 -11.42890625 7.61617188 -12 8 C-12.33 7.01 -12.66 6.02 -13 5 C-4.33537351 -1.02008788 -4.33537351 -1.02008788 0 0 Z " fill="#A9C8DD" transform="translate(321,322)"/>
<path d="M0 0 C0 3 0 3 -1.875 5 C-6.30516337 7.83530455 -11.94827552 10.5628392 -17.30859375 9.57421875 C-17.86675781 9.38472656 -18.42492187 9.19523437 -19 9 C-17.96359375 8.60167969 -16.9271875 8.20335937 -15.859375 7.79296875 C-14.4894564 7.25813752 -13.11967172 6.72296316 -11.75 6.1875 C-11.06808594 5.92646484 -10.38617188 5.66542969 -9.68359375 5.39648438 C-6.05595111 3.9700812 -2.99552463 2.57090129 0 0 Z " fill="#ACCCDD" transform="translate(299,318)"/>
<path d="M0 0 C0.33 0 0.66 0 1 0 C1.02578125 1.08539063 1.0515625 2.17078125 1.078125 3.2890625 C1.13443738 4.73441349 1.191784 6.17972444 1.25 7.625 C1.26417969 8.33785156 1.27835937 9.05070313 1.29296875 9.78515625 C1.53012598 14.95518377 2.82435253 17.77003757 6 22 C6 22.66 6 23.32 6 24 C4 24 4 24 1.890625 22.640625 C-1.02912386 18.56262866 -0.42763545 14.62814268 -0.25 9.75 C-0.23195313 8.81414062 -0.21390625 7.87828125 -0.1953125 6.9140625 C-0.14825673 4.60832985 -0.08253713 2.30469055 0 0 Z " fill="#B2D0DF" transform="translate(311,210)"/>
<path d="M0 0 C1.65 0 3.3 0 5 0 C4.319375 0.53625 3.63875 1.0725 2.9375 1.625 C1.33717403 2.91888057 -0.25332709 4.22727375 -1.78515625 5.6015625 C-2.39230469 6.14554688 -2.99945313 6.68953125 -3.625 7.25 C-4.47964844 8.03117188 -4.47964844 8.03117188 -5.3515625 8.828125 C-7 10 -7 10 -10 10 C-8.59136573 6.52289751 -7.11397363 5.15256208 -3.875 3.3125 C-2.57085804 2.56296645 -1.27521703 1.79775205 0 1 C0 0.67 0 0.34 0 0 Z " fill="#9DC4DB" transform="translate(196,164)"/>
<path d="M0 0 C5.4389165 -0.21755666 9.87080814 -0.10428384 15 2 C15 2.66 15 3.32 15 4 C13.24967156 3.85816304 11.49974466 3.71136571 9.75 3.5625 C8.77546875 3.48128906 7.8009375 3.40007812 6.796875 3.31640625 C4.43538247 3.04925416 2.28098935 2.64628032 0 2 C0 1.34 0 0.68 0 0 Z " fill="#A9C9DB" transform="translate(223,343)"/>
<path d="M0 0 C0.76183594 0.42152344 1.52367187 0.84304688 2.30859375 1.27734375 C8.71830849 4.67825357 13.7299052 6.75766351 21 7 C21 7.33 21 7.66 21 8 C13.16465389 8.61187085 7.1963309 7.06459719 0 4 C0 2.68 0 1.36 0 0 Z " fill="#E9F6F6" transform="translate(217,273)"/>
<path d="M0 0 C3 3.625 3 3.625 3 7 C3.66 7 4.32 7 5 7 C8.22265625 12.2734375 8.22265625 12.2734375 9 14 C8.67 14.66 8.34 15.32 8 16 C3.61918534 11.97438652 0.21306363 8.26697562 -0.1875 2.125 C-0.125625 1.42375 -0.06375 0.7225 0 0 Z " fill="#A8CADD" transform="translate(166,279)"/>
<path d="M0 0 C2.98205122 2.55604391 4.58490064 5.35053322 6 9 C5.1875 11.375 5.1875 11.375 4 13 C2.5 11.9375 2.5 11.9375 1 10 C0.8125 6.3125 0.8125 6.3125 1 3 C0.34 3 -0.32 3 -1 3 C-0.67 2.01 -0.34 1.02 0 0 Z " fill="#A5C7E3" transform="translate(343,191)"/>
<path d="M0 0 C0.66 0.99 1.32 1.98 2 3 C0.90716423 4.03295436 -0.19970579 5.05107835 -1.3125 6.0625 C-1.92738281 6.63097656 -2.54226562 7.19945312 -3.17578125 7.78515625 C-3.77777344 8.18605469 -4.37976563 8.58695313 -5 9 C-5.99 8.67 -6.98 8.34 -8 8 C-6.88333826 4.65001479 -6.25305075 4.20659778 -3.4375 2.3125 C-2.79683594 1.87550781 -2.15617188 1.43851563 -1.49609375 0.98828125 C-1.00238281 0.66214844 -0.50867188 0.33601562 0 0 Z " fill="#A6C6DE" transform="translate(189,153)"/>
<path d="M0 0 C4.13621084 3.3810038 7.81316569 6.66590534 11 11 C10.67 11.66 10.34 12.32 10 13 C9.34 13 8.68 13 8 13 C6.98648336 11.34151823 5.98879205 9.67334039 5 8 C4.29875 7.319375 3.5975 6.63875 2.875 5.9375 C0.85310392 3.84820738 0.56398054 2.76810857 0 0 Z " fill="#AFD1E1" transform="translate(362,345)"/>
<path d="M0 0 C-3.61542511 2.27217105 -7.25471325 4.08894721 -11.1875 5.75 C-12.75564453 6.42289062 -12.75564453 6.42289062 -14.35546875 7.109375 C-15.22816406 7.40328125 -16.10085938 7.6971875 -17 8 C-17.66 7.67 -18.32 7.34 -19 7 C-16.40163864 5.63354299 -13.79734444 4.28169331 -11.1875 2.9375 C-10.44951172 2.54755859 -9.71152344 2.15761719 -8.95117188 1.75585938 C-8.23896484 1.39169922 -7.52675781 1.02753906 -6.79296875 0.65234375 C-6.1383667 0.31195068 -5.48376465 -0.02844238 -4.80932617 -0.37915039 C-3 -1 -3 -1 0 0 Z " fill="#E9F7F7" transform="translate(297,320)"/>
<path d="M0 0 C2.475 0.495 2.475 0.495 5 1 C4.67 1.66 4.34 2.32 4 3 C6.31 4.65 8.62 6.3 11 8 C10.67 8.66 10.34 9.32 10 10 C6.03209924 8.32127275 3.13068506 5.91722926 0 3 C0 2.01 0 1.02 0 0 Z " fill="#A5C6DA" transform="translate(176,316)"/>
<path d="M0 0 C3.96675351 -0.26023028 6.30458539 0.35277592 9.75 2.3125 C10.52859375 2.74175781 11.3071875 3.17101562 12.109375 3.61328125 C14 5 14 5 15 8 C11.45756548 6.63408831 8.07372071 5.09068516 4.6875 3.375 C3.80449219 2.92898437 2.92148437 2.48296875 2.01171875 2.0234375 C1.34785156 1.68570313 0.68398438 1.34796875 0 1 C0 0.67 0 0.34 0 0 Z " fill="#A4C8DC" transform="translate(286,157)"/>
<path d="M0 0 C3.14703761 1.57351881 3.7416747 4.30201662 5.1875 7.4375 C5.73792969 8.61183594 6.28835938 9.78617188 6.85546875 10.99609375 C7.23316406 11.98738281 7.61085938 12.97867188 8 14 C7.67 14.66 7.34 15.32 7 16 C4.06719206 13.52097896 3.06128178 11.030738 1.8125 7.4375 C1.46832031 6.46683594 1.12414062 5.49617187 0.76953125 4.49609375 C0 2 0 2 0 0 Z " fill="#E2F4F6" transform="translate(327,193)"/>
<path d="M0 0 C0.33 0.99 0.66 1.98 1 3 C2.2375 3.99 2.2375 3.99 3.5 5 C6 7 6 7 7 10 C1.70841026 8.59928507 -0.77478044 5.14512755 -4 1 C-2 0 -2 0 0 0 Z " fill="#B3CADB" transform="translate(372,373)"/>
<path d="M0 0 C0.66 0 1.32 0 2 0 C0.26017005 5.81261371 -1.8110489 10.83169994 -5 16 C-5.75 14.4375 -5.75 14.4375 -6 12 C-5.06440845 10.22560224 -4.11910287 8.45268593 -3.05859375 6.75 C-1.75539838 4.59564013 -0.85896606 2.36215666 0 0 Z " fill="#E6F5F6" transform="translate(334,272)"/>
<path d="M0 0 C4.76263669 1.90505468 8.89825977 3.89868422 13 7 C13 7.66 13 8.32 13 9 C8.33138019 7.39516194 3.90741833 5.02509806 0 2 C0 1.34 0 0.68 0 0 Z " fill="#A5C1D5" transform="translate(297,146)"/>
<path d="M0 0 C3.39417765 3.12621626 5.6062718 5.56541027 7 10 C6.01 10 5.02 10 4 10 C2.578125 8.57421875 2.578125 8.57421875 1.25 6.6875 C0.80140625 6.07261719 0.3528125 5.45773437 -0.109375 4.82421875 C-1 3 -1 3 0 0 Z " fill="#A5BED4" transform="translate(159,294)"/>
<path d="M0 0 C0.66 0.66 1.32 1.32 2 2 C1.71857705 6.78419016 -0.7870902 10.8520807 -3 15 C-3.66 14.67 -4.32 14.34 -5 14 C-4.72285156 13.40832031 -4.44570313 12.81664062 -4.16015625 12.20703125 C-1.44225847 6.30953569 -1.44225847 6.30953569 0 0 Z " fill="#A7CBDE" transform="translate(337,267)"/>
<path d="M0 0 C0 0.66 0 1.32 0 2 C-1.98 2.33 -3.96 2.66 -6 3 C-6 3.66 -6 4.32 -6 5 C-9.52948291 6.66670026 -11.28272326 7.13583456 -15 6 C-13.3970947 5.18501438 -11.79262722 4.37310073 -10.1875 3.5625 C-9.29417969 3.11003906 -8.40085938 2.65757812 -7.48046875 2.19140625 C-4.94542384 0.97378625 -2.8412008 0 0 0 Z " fill="#E6F3F4" transform="translate(223,154)"/>
<path d="M0 0 C10.55808656 3.07517084 10.55808656 3.07517084 15 5 C15 5.33 15 5.66 15 6 C9.86496656 5.35812082 5.0056546 4.31727753 0 3 C0 2.01 0 1.02 0 0 Z " fill="#ABC6D9" transform="translate(282,140)"/>
<path d="M0 0 C3.375 0.25 3.375 0.25 7 1 C8.4375 3.0625 8.4375 3.0625 9 5 C8.34 5 7.68 5 7 5 C6.67 5.66 6.34 6.32 6 7 C4.02 4.69 2.04 2.38 0 0 Z " fill="#A5C5E0" transform="translate(349,355)"/>
<path d="M0 0 C2.3125 0.1875 2.3125 0.1875 5 1 C6.875 3.375 6.875 3.375 8 6 C7.67 6.99 7.34 7.98 7 9 C5.83037314 7.69013727 4.66437056 6.3770374 3.5 5.0625 C2.8503125 4.33160156 2.200625 3.60070312 1.53125 2.84765625 C0 1 0 1 0 0 Z " fill="#A6C4D8" transform="translate(166,307)"/>
<path d="M0 0 C2.95803481 1.3487075 5.20796367 2.89568549 7.625 5.0625 C9.4181258 6.66378483 10.84656316 7.92328158 13 9 C13 9.66 13 10.32 13 11 C8.98935008 9.65843409 6.61296284 7.97314977 3.6875 4.9375 C2.99011719 4.22464844 2.29273438 3.51179688 1.57421875 2.77734375 C0 1 0 1 0 0 Z " fill="#E7F5F5" transform="translate(184,304)"/>
<path d="M0 0 C2 1 2 1 3.125 4.3125 C4 8 4 8 4 12 C3.01 12.33 2.02 12.66 1 13 C0.67 8.71 0.34 4.42 0 0 Z " fill="#B3DCF8" transform="translate(217,232)"/>
<path d="M0 0 C1.875 0.125 1.875 0.125 4 1 C5.25 4.0625 5.25 4.0625 6 7 C3.0280615 5.87548273 0.66559313 4.77706209 -2 3 C-1.34 2.01 -0.68 1.02 0 0 Z " fill="#C0D7E4" transform="translate(305,203)"/>
<path d="M0 0 C-0.99 1.485 -0.99 1.485 -2 3 C-4.3828125 3.29296875 -4.3828125 3.29296875 -7.125 3.1875 C-8.03507813 3.16042969 -8.94515625 3.13335937 -9.8828125 3.10546875 C-10.58148438 3.07066406 -11.28015625 3.03585938 -12 3 C-11 1 -11 1 -8.25 -0.1875 C-4.95578208 -1.01105448 -3.20978295 -0.94405381 0 0 Z " fill="#AACBDB" transform="translate(218,142)"/>
<path d="M0 0 C1.65 0.33 3.3 0.66 5 1 C5 1.99 5 2.98 5 4 C3.02 4.33 1.04 4.66 -1 5 C-1.33 4.01 -1.66 3.02 -2 2 C-1.34 2 -0.68 2 0 2 C0 1.34 0 0.68 0 0 Z " fill="#A6CADF" transform="translate(278,339)"/>
<path d="M0 0 C0.33 0 0.66 0 1 0 C1.66 3.3 2.32 6.6 3 10 C1.35 8.68 -0.3 7.36 -2 6 C-1.125 1.125 -1.125 1.125 0 0 Z " fill="#A1C2DB" transform="translate(365,364)"/>
<path d="M0 0 C0 0.33 0 0.66 0 1 C-1.95689659 1.22142255 -3.91561952 1.4267568 -5.875 1.625 C-7.51082031 1.79902344 -7.51082031 1.79902344 -9.1796875 1.9765625 C-10.57574219 1.98816406 -10.57574219 1.98816406 -12 2 C-12.66 1.34 -13.32 0.68 -14 0 C-8.97703996 -1.13016601 -5.02125926 -0.77916092 0 0 Z " fill="#ACCADA" transform="translate(273,345)"/>
<path d="M0 0 C1.15957207 3.47871621 0.77456651 4.34219645 -0.4375 7.6875 C-0.86869141 8.89986328 -0.86869141 8.89986328 -1.30859375 10.13671875 C-1.53675781 10.75160156 -1.76492188 11.36648438 -2 12 C-2.66 12 -3.32 12 -4 12 C-3.71640113 10.5608866 -3.42278601 9.12374482 -3.125 7.6875 C-2.96257812 6.88699219 -2.80015625 6.08648437 -2.6328125 5.26171875 C-2 3 -2 3 0 0 Z " fill="#98BFD6" transform="translate(302,268)"/>
<path d="M0 0 C0.33 0.99 0.66 1.98 1 3 C0.525625 3.391875 0.05125 3.78375 -0.4375 4.1875 C-2.35179633 6.40808374 -2.61266988 8.13375709 -3 11 C-3.66 10.67 -4.32 10.34 -5 10 C-5.3125 7.8125 -5.3125 7.8125 -5 5 C-2.5 2.1875 -2.5 2.1875 0 0 Z " fill="#E6F4FA" transform="translate(281,207)"/>
<path d="M0 0 C2.31 1.98 4.62 3.96 7 6 C6.01 6.66 5.02 7.32 4 8 C2 6.25 2 6.25 0 4 C0 2.68 0 1.36 0 0 Z " fill="#B5D0E1" transform="translate(355,338)"/>
<path d="M0 0 C2.74554724 2.37115444 3.95117186 4.53079925 5 8 C5.125 11.3125 5.125 11.3125 5 14 C2.77858289 9.89892226 0 4.73442329 0 0 Z " fill="#9EB6CB" transform="translate(347,201)"/>
<path d="M0 0 C1.70884005 1.62339805 3.37446717 3.29319053 5 5 C5 5.66 5 6.32 5 7 C3.68 7 2.36 7 1 7 C0.67 4.69 0.34 2.38 0 0 Z " fill="#B1CEDE" transform="translate(335,178)"/>
<path d="M0 0 C6.625 0.75 6.625 0.75 10 3 C10 3.66 10 4.32 10 5 C6.33118845 4.29445932 3.29549466 2.72264494 0 1 C0 0.67 0 0.34 0 0 Z " fill="#E5F3F3" transform="translate(274,179)"/>
<path d="M0 0 C-0.33 1.32 -0.66 2.64 -1 4 C-1.66 4 -2.32 4 -3 4 C-3.66 5.65 -4.32 7.3 -5 9 C-5.33 9 -5.66 9 -6 9 C-6.25 6.75 -6.25 6.75 -6 4 C-2.75675676 0 -2.75675676 0 0 0 Z " fill="#E9F6F6" transform="translate(328,288)"/>
<path d="M0 0 C-3.03525486 2.02350324 -4.19426202 2.32124018 -7.6875 2.625 C-8.49574219 2.69976562 -9.30398437 2.77453125 -10.13671875 2.8515625 C-10.75160156 2.90054688 -11.36648437 2.94953125 -12 3 C-8.40198016 -0.59801984 -4.84291279 -0.09137571 0 0 Z " fill="#99B9CC" transform="translate(230,138)"/>
<path d="M0 0 C3.25543229 0.34879632 4.01873107 1.02133261 6.25 3.5625 C6.8275 4.366875 7.405 5.17125 8 6 C4.21032475 5.45861782 2.48587161 3.84099612 0 1 C0 0.67 0 0.34 0 0 Z " fill="#A3CFDF" transform="translate(347,332)"/>
<path d="M0 0 C0.99 0.33 1.98 0.66 3 1 C0.525 4.465 0.525 4.465 -2 8 C-2.33 6.68 -2.66 5.36 -3 4 C-2.34 4 -1.68 4 -1 4 C-0.67 2.68 -0.34 1.36 0 0 Z " fill="#B0C9DA" transform="translate(336,299)"/>
<path d="M0 0 C0.33 0 0.66 0 1 0 C0.67 2.31 0.34 4.62 0 7 C-0.66 7 -1.32 7 -2 7 C-2.33 7.66 -2.66 8.32 -3 9 C-2.5020163 5.26512223 -2.12508244 3.18762365 0 0 Z " fill="#96B6CA" transform="translate(153,197)"/>
<path d="M0 0 C2.0625 0.4375 2.0625 0.4375 4 1 C2.1875 3 2.1875 3 0 5 C-0.99 5 -1.98 5 -3 5 C-1.125 1.125 -1.125 1.125 0 0 Z " fill="#97BDD0" transform="translate(199,147)"/>
<path d="M0 0 C0.8353125 0.37125 0.8353125 0.37125 1.6875 0.75 C-1.125 2.8125 -1.125 2.8125 -4.3125 4.75 C-5.3025 4.42 -6.2925 4.09 -7.3125 3.75 C-2.88173077 -0.31153846 -2.88173077 -0.31153846 0 0 Z " fill="#EDF8F8" transform="translate(298.3125,283.25)"/>
<path d="M0 0 C0.66 0.33 1.32 0.66 2 1 C-1.96 4.465 -1.96 4.465 -6 8 C-6 5 -6 5 -4.6875 3.61328125 C-3.125 2.40885417 -1.5625 1.20442708 0 0 Z " fill="#ECF7FB" transform="translate(294,214)"/>
<path d="M0 0 C0.78375 0.04125 1.5675 0.0825 2.375 0.125 C-0.50587546 2.52572955 -3.18904834 4.59791037 -6.625 6.125 C-3.85227273 0.18344156 -3.85227273 0.18344156 0 0 Z " fill="#A9CBDC" transform="translate(198.625,163.875)"/>
<path d="M0 0 C1.98 0 3.96 0 6 0 C6.33 0.99 6.66 1.98 7 3 C5.02 3 3.04 3 1 3 C0.67 2.01 0.34 1.02 0 0 Z " fill="#A5C4D7" transform="translate(378,380)"/>
<path d="M0 0 C1.65 0 3.3 0 5 0 C4.67 0.99 4.34 1.98 4 3 C1.69 3 -0.62 3 -3 3 C-2.01 2.67 -1.02 2.34 0 2 C0 1.34 0 0.68 0 0 Z " fill="#99BBD5" transform="translate(272,342)"/>
<path d="M0 0 C0.33 0.66 0.66 1.32 1 2 C-0.4375 4.625 -0.4375 4.625 -2 7 C-3.32 6.67 -4.64 6.34 -6 6 C-4 4 -2 2 0 0 Z " fill="#E5F4F3" transform="translate(315,258)"/>
<path d="M0 0 C0.99 0.495 0.99 0.495 2 1 C1.01 1.495 1.01 1.495 0 2 C0 1.34 0 0.68 0 0 Z M-1 2 C-1 2.99 -1 3.98 -1 5 C-3.5 7.1875 -3.5 7.1875 -6 9 C-4.75023244 5.34683329 -4.32901247 4.21934164 -1 2 Z " fill="#B3DEF7" transform="translate(232,241)"/>
<path d="M0 0 C1.65 0 3.3 0 5 0 C5 1.65 5 3.3 5 5 C2.5 3.625 2.5 3.625 0 2 C0 1.34 0 0.68 0 0 Z " fill="#B2DDF9" transform="translate(200,224)"/>
<path d="M0 0 C0.66 0.99 1.32 1.98 2 3 C1.01 4.98 0.02 6.96 -1 9 C-1.66 8.67 -2.32 8.34 -3 8 C-1.125 2.25 -1.125 2.25 0 0 Z " fill="#B1C9DA" transform="translate(156,189)"/>
<path d="M0 0 C2.52259061 1.97420135 2.9929808 2.96745642 3.6875 6.1875 C3.790625 7.115625 3.89375 8.04375 4 9 C1 5.25 1 5.25 1 3 C0.34 3 -0.32 3 -1 3 C-0.67 2.01 -0.34 1.02 0 0 Z " fill="#A3B8D5" transform="translate(343,191)"/>
</svg>
